<svg width="1580" height="842" viewBox="0 0 1580 842" fill="none" xmlns="http://www.w3.org/2000/svg">
<g clip-path="url(#clip0_482_10383)">
<g filter="url(#filter0_n_482_10383)">
<path d="M441.936 537.922C1083.69 393.178 1245.19 356.752 1584 425.807L1584 920.489L-1.00049 920.489V538.988C88.1873 507.205 278.469 574.791 437.209 538.988L441.936 537.922Z" fill="url(#paint0_radial_482_10383)"/>
</g>
<g filter="url(#filter1_f_482_10383)">
<ellipse cx="1396.01" cy="457.101" rx="126.008" ry="47.1011" fill="#7A8C64" fill-opacity="0.6"/>
</g>
<path d="M1109.33 491.22C1107.8 484.391 1106.32 474.431 1112.62 489.221L1109.33 491.22Z" fill="#7C9C77"/>
<path d="M1114.06 488.347C1115.3 477.52 1117.9 462.363 1118.35 488.347H1114.06Z" fill="#7C9C77"/>
<path d="M1120.22 488.347C1121.17 484.766 1124.51 477.729 1130.24 478.228C1130.53 479.144 1128.92 482.451 1120.22 488.347Z" fill="#7C9C77"/>
<path d="M1130.24 485.099L1125.37 488.347L1127.81 489.221C1131.82 488.522 1131.1 486.182 1130.24 485.099Z" fill="#7C9C77"/>
<path d="M1375.23 491.22C1373.7 484.391 1372.22 474.431 1378.52 489.221L1375.23 491.22Z" fill="#7C9C77"/>
<path d="M1379.95 488.347C1381.19 477.52 1383.79 462.363 1384.25 488.347H1379.95Z" fill="#7C9C77"/>
<path d="M1386.11 488.347C1387.07 484.766 1390.41 477.729 1396.14 478.228C1396.42 479.144 1394.82 482.451 1386.11 488.347Z" fill="#7C9C77"/>
<path d="M1396.14 485.099L1391.27 488.347L1393.7 489.221C1397.71 488.522 1397 486.182 1396.14 485.099Z" fill="#7C9C77"/>
<path d="M1451.81 558.275C1450.28 551.446 1448.8 541.486 1455.1 556.276L1451.81 558.275Z" fill="#7C9C77"/>
<path d="M1456.54 555.402C1457.78 544.575 1460.37 529.418 1460.83 555.402H1456.54Z" fill="#7C9C77"/>
<path d="M1462.69 555.402C1463.65 551.821 1466.99 544.784 1472.72 545.283C1473.01 546.199 1471.4 549.506 1462.69 555.402Z" fill="#7C9C77"/>
<path d="M1472.72 552.154L1467.85 555.402L1470.29 556.276C1474.3 555.577 1473.58 553.236 1472.72 552.154Z" fill="#7C9C77"/>
<path d="M711.828 482.544C710.3 475.715 708.82 465.754 715.122 480.545L711.828 482.544Z" fill="#7C9C77"/>
<path d="M716.555 479.67C717.796 468.844 720.393 453.687 720.852 479.67H716.555Z" fill="#7C9C77"/>
<path d="M722.714 479.67C723.668 476.089 727.01 469.052 732.739 469.552C733.026 470.468 731.422 473.774 722.714 479.67Z" fill="#7C9C77"/>
<path d="M732.739 476.422L727.87 479.67L730.305 480.545C734.315 479.845 733.599 477.505 732.739 476.422Z" fill="#7C9C77"/>
<g filter="url(#filter2_f_482_10383)">
<ellipse cx="10.7815" cy="4.09893" rx="10.7815" ry="4.09893" transform="matrix(1 0 0 -1 1070.52 452.783)" fill="#62C4CD"/>
</g>
<g filter="url(#filter3_f_482_10383)">
<ellipse cx="10.7815" cy="4.09893" rx="10.7815" ry="4.09893" transform="matrix(1 0 0 -1 1336.42 452.783)" fill="#62C4CD"/>
</g>
<g filter="url(#filter4_f_482_10383)">
<ellipse cx="10.7815" cy="4.09893" rx="10.7815" ry="4.09893" transform="matrix(1 0 0 -1 1413 519.838)" fill="#62C4CD"/>
</g>
<g filter="url(#filter5_f_482_10383)">
<ellipse cx="1017.19" cy="500.068" rx="10.7815" ry="4.09893" transform="rotate(180 1017.19 500.068)" fill="#62C4CD"/>
</g>
<g filter="url(#filter6_f_482_10383)">
<ellipse cx="1213.51" cy="441.353" rx="3.50673" ry="4.40786" fill="#F7F2B2"/>
</g>
<g filter="url(#filter7_f_482_10383)">
<ellipse cx="1555.99" cy="508.408" rx="3.50673" ry="4.40786" fill="#F7F2B2"/>
</g>
<g filter="url(#filter8_f_482_10383)">
<ellipse cx="3.50673" cy="4.40786" rx="3.50673" ry="4.40786" transform="matrix(-1 0 0 1 888.488 488.328)" fill="#F7F2B2"/>
</g>
<path d="M1284.9 386.217C1284.9 389.29 1283.65 391.882 1281.95 392.694C1281.59 392.865 1281.2 392.957 1280.81 392.957C1280.42 392.957 1280.03 392.865 1279.67 392.694C1277.97 391.882 1276.72 389.29 1276.72 386.217C1276.72 382.495 1278.55 384.513 1280.81 384.513C1283.07 384.513 1284.9 382.495 1284.9 386.217Z" fill="#C38970"/>
<path d="M1280.81 392.957C1280.42 392.957 1280.03 392.865 1279.67 392.694C1280.13 394.169 1280.76 397.754 1279.67 400.292H1280.81C1281.11 399.191 1281.76 396.13 1281.95 392.694C1281.59 392.865 1281.2 392.957 1280.81 392.957Z" fill="#689075"/>
<path d="M1167.55 420.108C1167.55 422.798 1168.65 425.067 1170.14 425.777C1170.46 425.928 1170.79 426.008 1171.14 426.008C1171.48 426.008 1171.81 425.928 1172.13 425.777C1173.62 425.067 1174.72 422.798 1174.72 420.108C1174.72 416.85 1173.11 418.617 1171.14 418.617C1169.16 418.617 1167.55 416.85 1167.55 420.108Z" fill="#C8BE70"/>
<path d="M1171.14 426.008C1171.48 426.008 1171.81 425.928 1172.13 425.777C1171.73 427.069 1171.18 430.207 1172.13 432.428H1171.14C1170.87 431.465 1170.3 428.786 1170.14 425.777C1170.46 425.928 1170.79 426.008 1171.14 426.008Z" fill="#689075"/>
<path d="M930.941 471.492C930.941 474.181 929.849 476.45 928.355 477.16C928.039 477.311 927.705 477.391 927.36 477.391C927.015 477.391 926.681 477.311 926.366 477.16C924.872 476.45 923.779 474.181 923.779 471.492C923.779 468.233 925.383 470 927.36 470C929.338 470 930.941 468.233 930.941 471.492Z" fill="#C8BE70"/>
<path d="M927.36 477.391C927.015 477.391 926.681 477.311 926.366 477.16C926.763 478.452 927.32 481.59 926.366 483.811H927.36C927.626 482.848 928.196 480.169 928.355 477.16C928.039 477.311 927.705 477.391 927.36 477.391Z" fill="#689075"/>
<g filter="url(#filter9_f_482_10383)">
<ellipse cx="1053" cy="412.849" rx="5.39073" ry="1.76314" fill="#B4D6BC"/>
</g>
<g filter="url(#filter10_f_482_10383)">
<ellipse cx="5.39073" cy="1.76314" rx="5.39073" ry="1.76314" transform="matrix(-1 0 0 1 1050.88 462.469)" fill="#B4D6BC"/>
</g>
<g filter="url(#filter11_f_482_10383)">
<ellipse cx="5.39073" cy="1.76314" rx="5.39073" ry="1.76314" transform="matrix(-1 0 0 1 1316.78 462.469)" fill="#B4D6BC"/>
</g>
<g filter="url(#filter12_f_482_10383)">
<ellipse cx="1160.14" cy="461.041" rx="5.39073" ry="1.76314" fill="#B4D6BC"/>
</g>
<g filter="url(#filter13_f_482_10383)">
<ellipse cx="1502.62" cy="528.096" rx="5.39073" ry="1.76314" fill="#B4D6BC"/>
</g>
<g filter="url(#filter14_f_482_10383)">
<ellipse cx="5.39073" cy="1.76314" rx="5.39073" ry="1.76314" transform="matrix(-1 0 0 1 943.744 510.661)" fill="#B4D6BC"/>
</g>
<g filter="url(#filter15_f_482_10383)">
<ellipse cx="1219.39" cy="409.763" rx="5.39073" ry="1.76314" fill="#B4D6BC"/>
</g>
<g filter="url(#filter16_f_482_10383)">
<ellipse cx="5.39073" cy="1.76314" rx="5.39073" ry="1.76314" transform="matrix(-1 0 0 1 967.328 472.46)" fill="#B4D6BC"/>
</g>
<g filter="url(#filter17_f_482_10383)">
<path d="M1123.23 392.078C1121.88 389.527 1119.49 386.178 1120.69 393.186C1122.08 394.966 1124.53 397.237 1123.23 392.078Z" fill="#84EEEC"/>
<path d="M1127.85 392.078C1126.6 391.674 1124.27 391.493 1124.96 393.992C1125.83 397.116 1130.05 392.2 1127.85 392.078Z" fill="#84EEEC"/>
<path d="M1129.7 397.116C1126.62 396.814 1121.94 396.895 1127.85 399.636C1129.86 399.972 1133.03 399.938 1129.7 397.116Z" fill="#84EEEC"/>
<path d="M1122.19 403.062C1122.34 401.282 1121.8 397.882 1118.38 398.527C1114.1 399.334 1121.04 404.473 1122.19 403.062Z" fill="#84EEEC"/>
<path d="M1129.7 402.155C1127.62 402.357 1124.16 403.506 1126.93 406.489C1128.47 406.762 1131.18 406.279 1129.7 402.155Z" fill="#84EEEC"/>
<path d="M1124.96 405.279C1124.58 409.008 1124.62 417.272 1127.85 420.497C1128.43 417.843 1128.66 411.084 1124.96 405.279Z" fill="#4B7864"/>
</g>
<g filter="url(#filter18_f_482_10383)">
<path d="M872.15 425.582C873.498 423.031 875.894 419.682 874.692 426.69C873.305 428.471 870.856 430.741 872.15 425.582Z" fill="#84EEEC"/>
<path d="M867.528 425.582C868.778 425.178 871.106 424.997 870.417 427.496C869.555 430.62 865.333 425.704 867.528 425.582Z" fill="#84EEEC"/>
<path d="M865.679 430.62C868.761 430.318 873.444 430.399 867.528 433.14C865.525 433.476 862.352 433.442 865.679 430.62Z" fill="#84EEEC"/>
<path d="M873.19 436.566C873.036 434.786 873.583 431.386 877.003 432.031C881.278 432.838 874.345 437.977 873.19 436.566Z" fill="#84EEEC"/>
<path d="M865.679 435.659C867.759 435.861 871.226 437.01 868.452 439.993C866.912 440.266 864.2 439.783 865.679 435.659Z" fill="#84EEEC"/>
<path d="M870.417 438.783C870.802 442.512 870.763 450.776 867.528 454.001C866.95 451.347 866.719 444.588 870.417 438.783Z" fill="#4B7864"/>
</g>
<g filter="url(#filter19_f_482_10383)">
<path d="M1268.8 415.926C1267.45 413.376 1265.06 410.027 1266.26 417.035C1267.64 418.815 1270.09 421.086 1268.8 415.926Z" fill="#84EEEC"/>
<path d="M1273.42 415.926C1272.17 415.523 1269.84 415.342 1270.53 417.841C1271.39 420.965 1275.62 416.049 1273.42 415.926Z" fill="#84EEEC"/>
<path d="M1275.27 420.965C1272.19 420.663 1267.5 420.743 1273.42 423.485C1275.42 423.821 1278.6 423.787 1275.27 420.965Z" fill="#84EEEC"/>
<path d="M1267.76 426.911C1267.91 425.131 1267.37 421.731 1263.95 422.376C1259.67 423.182 1266.6 428.322 1267.76 426.911Z" fill="#84EEEC"/>
<path d="M1275.27 426.004C1273.19 426.206 1269.72 427.354 1272.5 430.337C1274.04 430.611 1276.75 430.127 1275.27 426.004Z" fill="#84EEEC"/>
<path d="M1270.53 429.128C1270.15 432.857 1270.19 441.121 1273.42 444.346C1274 441.692 1274.23 434.933 1270.53 429.128Z" fill="#4B7864"/>
</g>
<g filter="url(#filter20_f_482_10383)">
<path d="M829.699 467.309C831.047 464.759 833.442 461.41 832.241 468.418C830.854 470.198 828.405 472.469 829.699 467.309Z" fill="#84EEEC"/>
<path d="M825.077 467.309C826.327 466.906 828.655 466.725 827.966 469.224C827.104 472.348 822.882 467.432 825.077 467.309Z" fill="#84EEEC"/>
<path d="M823.228 472.348C826.309 472.046 830.993 472.127 825.077 474.868C823.074 475.204 819.9 475.17 823.228 472.348Z" fill="#84EEEC"/>
<path d="M830.739 478.294C830.585 476.514 831.132 473.114 834.552 473.759C838.827 474.565 831.894 479.705 830.739 478.294Z" fill="#84EEEC"/>
<path d="M823.228 477.387C825.308 477.589 828.774 478.738 826.001 481.721C824.461 481.994 821.749 481.511 823.228 477.387Z" fill="#84EEEC"/>
<path d="M827.966 480.511C828.351 484.24 828.312 492.504 825.077 495.729C824.499 493.075 824.268 486.316 827.966 480.511Z" fill="#4B7864"/>
</g>
<g filter="url(#filter21_f_482_10383)">
<ellipse cx="10.7815" cy="4.09893" rx="10.7815" ry="4.09893" transform="matrix(1 0 0 -1 1207.99 531.285)" fill="#62C4CD"/>
</g>
<g filter="url(#filter22_f_482_10383)">
<ellipse cx="1350.98" cy="519.855" rx="3.50673" ry="4.40786" fill="#F7F2B2"/>
</g>
<path d="M1305.02 498.61C1305.02 501.3 1306.11 503.569 1307.61 504.279C1307.92 504.429 1308.26 504.51 1308.6 504.51C1308.95 504.51 1309.28 504.429 1309.6 504.279C1311.09 503.569 1312.18 501.3 1312.18 498.61C1312.18 495.352 1310.58 497.118 1308.6 497.118C1306.62 497.118 1305.02 495.352 1305.02 498.61Z" fill="#C8BE70"/>
<path d="M1308.6 504.51C1308.95 504.51 1309.28 504.429 1309.6 504.279C1309.2 505.571 1308.64 508.709 1309.6 510.93H1308.6C1308.34 509.966 1307.77 507.287 1307.61 504.279C1307.92 504.429 1308.26 504.51 1308.6 504.51Z" fill="#689075"/>
<g filter="url(#filter23_f_482_10383)">
<ellipse cx="1190.47" cy="491.351" rx="5.39073" ry="1.76314" fill="#B4D6BC"/>
</g>
<g filter="url(#filter24_f_482_10383)">
<ellipse cx="1532.95" cy="558.405" rx="5.39073" ry="1.76314" fill="#B4D6BC"/>
</g>
<g filter="url(#filter25_f_482_10383)">
<ellipse cx="1297.61" cy="539.543" rx="5.39073" ry="1.76314" fill="#B4D6BC"/>
</g>
<g filter="url(#filter26_f_482_10383)">
<ellipse cx="1274.02" cy="501.342" rx="5.39073" ry="1.76314" fill="#B4D6BC"/>
</g>
<g filter="url(#filter27_f_482_10383)">
<path d="M1371.23 408.078C1369.88 405.527 1367.49 402.178 1368.69 409.186C1370.08 410.966 1372.53 413.237 1371.23 408.078Z" fill="#84EEEC"/>
<path d="M1375.85 408.078C1374.6 407.674 1372.27 407.493 1372.96 409.992C1373.83 413.116 1378.05 408.2 1375.85 408.078Z" fill="#84EEEC"/>
<path d="M1377.7 413.116C1374.62 412.814 1369.94 412.895 1375.85 415.636C1377.86 415.972 1381.03 415.938 1377.7 413.116Z" fill="#84EEEC"/>
<path d="M1370.19 419.062C1370.34 417.282 1369.8 413.882 1366.38 414.527C1362.1 415.334 1369.04 420.473 1370.19 419.062Z" fill="#84EEEC"/>
<path d="M1377.7 418.155C1375.62 418.357 1372.16 419.506 1374.93 422.489C1376.47 422.762 1379.18 422.279 1377.7 418.155Z" fill="#84EEEC"/>
<path d="M1372.96 421.279C1372.58 425.008 1372.62 433.272 1375.85 436.497C1376.43 433.843 1376.66 427.084 1372.96 421.279Z" fill="#4B7864"/>
</g>
<g filter="url(#filter28_f_482_10383)">
<path d="M1540.23 444.078C1538.88 441.527 1536.49 438.178 1537.69 445.186C1539.08 446.966 1541.53 449.237 1540.23 444.078Z" fill="#84EEEC"/>
<path d="M1544.85 444.078C1543.6 443.674 1541.27 443.493 1541.96 445.992C1542.83 449.116 1547.05 444.2 1544.85 444.078Z" fill="#84EEEC"/>
<path d="M1546.7 449.116C1543.62 448.814 1538.94 448.895 1544.85 451.636C1546.86 451.972 1550.03 451.938 1546.7 449.116Z" fill="#84EEEC"/>
<path d="M1539.19 455.062C1539.34 453.282 1538.8 449.882 1535.38 450.527C1531.1 451.334 1538.04 456.473 1539.19 455.062Z" fill="#84EEEC"/>
<path d="M1546.7 454.155C1544.62 454.357 1541.16 455.506 1543.93 458.489C1545.47 458.762 1548.18 458.279 1546.7 454.155Z" fill="#84EEEC"/>
<path d="M1541.96 457.279C1541.58 461.008 1541.62 469.272 1544.85 472.497C1545.43 469.843 1545.66 463.084 1541.96 457.279Z" fill="#4B7864"/>
</g>
<g filter="url(#filter29_n_482_10383)">
<path d="M1447.31 270.475L1397.27 289.759C1420.02 313.495 1412.66 458.88 1392.06 463.967C1392.06 463.967 1433.98 481.592 1447.31 477.52C1460.64 473.447 1460.64 454.551 1460.64 454.551L1447.31 270.475Z" fill="url(#paint1_linear_482_10383)"/>
<path d="M1504.13 204.368L1482.05 199.417V187.864L1456.24 165.611L1449.2 173.245L1440.5 165.611L1410.76 165.611H1399.39H1382.77C1381.02 165.611 1376.62 164.197 1375.6 165.611L1367.68 173.245C1362.78 173.245 1349.9 182.991 1344.06 187.864L1310.83 220.637L1304.7 226.296C1302.66 231.011 1299.81 240.914 1304.7 242.8C1310.83 245.158 1330.51 246.808 1337.29 251.76C1344.06 256.711 1350.84 277.931 1344.06 281.939C1338.64 285.146 1334.22 289.248 1332.69 290.899C1334.73 295.064 1339.87 304.197 1344.06 307.403C1348.26 310.61 1356.46 317.385 1360.03 320.371V332.632L1356.31 345.835L1365.28 349.844L1380.58 360.454L1399.39 355.502L1410.76 349.844L1417.76 360.454L1428.25 349.844V345.835L1456.24 355.502L1471.55 339.234V326.973L1501.07 324.379L1510.91 315.42V295.143L1523.16 281.939V275.338V257.418V242.8L1515.5 233.605V212.385L1510.91 204.368H1504.13Z" fill="url(#paint2_linear_482_10383)"/>
<path d="M1522.09 160.102L1500.05 155.151V143.598L1474.29 121.346L1467.27 128.98L1458.58 121.346L1428.9 121.346H1417.55H1400.97C1399.22 121.346 1394.83 119.931 1393.81 121.346L1385.91 128.98C1381.02 128.98 1368.16 138.725 1362.34 143.598L1329.17 176.371L1323.06 182.03C1321.02 186.745 1318.17 196.648 1323.06 198.534C1329.17 200.892 1348.81 202.543 1355.57 207.494C1362.34 212.445 1369.1 233.665 1362.34 237.674C1356.93 240.88 1352.52 244.983 1350.99 246.633C1353.03 250.799 1358.15 259.931 1362.34 263.138C1366.53 266.344 1374.71 273.119 1378.27 276.105V288.366L1374.56 301.57L1383.51 305.578L1398.78 316.188L1417.55 311.237L1428.9 305.578L1435.88 316.188L1446.36 305.578V301.57L1474.29 311.237L1489.57 294.968V282.707L1519.03 280.114L1528.85 271.154V250.877L1541.08 237.674V231.072V213.153V198.534L1533.44 189.339V168.119L1528.85 160.102H1522.09Z" fill="url(#paint3_linear_482_10383)"/>
<path d="M1546.53 120.658L1524.44 115.706V104.153L1498.64 81.9007L1491.6 89.5349L1482.89 81.9007L1453.16 81.9007H1441.78H1425.17C1423.42 81.9007 1419.02 80.4861 1418 81.9007L1410.08 89.5348C1405.18 89.5348 1392.29 99.2804 1386.46 104.153L1353.22 136.926L1347.1 142.585C1345.06 147.301 1342.2 157.203 1347.1 159.09C1353.22 161.447 1372.9 163.098 1379.68 168.049C1386.46 173 1393.24 194.221 1386.46 198.229C1381.04 201.435 1376.62 205.538 1375.09 207.188C1377.13 211.354 1382.26 220.486 1386.46 223.693C1390.66 226.899 1398.85 233.674 1402.42 236.661V248.921L1398.71 262.125L1407.67 266.133L1422.98 276.743L1441.78 271.792L1453.16 266.133L1460.15 276.743L1470.65 266.133V262.125L1498.64 271.792L1513.95 255.523V243.262L1543.47 240.669L1553.31 231.709V211.432L1565.55 198.229V191.627V173.708V159.09L1557.9 149.894V128.674L1553.31 120.658H1546.53Z" fill="url(#paint4_linear_482_10383)"/>
<path d="M1540.4 79.4597L1520.85 74.5083V62.9552L1498 40.7028L1491.77 48.3369L1484.06 40.7028L1467.8 12H1457.73L1432.95 40.7028C1431.4 40.7028 1427.51 39.2881 1426.6 40.7028L1419.59 48.3369C1415.26 48.3369 1403.85 58.0824 1398.68 62.9552L1369.26 95.7284L1363.84 101.387C1362.03 106.103 1359.5 116.005 1363.84 117.892C1369.26 120.249 1386.68 121.9 1392.68 126.851C1398.68 131.803 1404.69 153.023 1398.68 157.031C1393.88 160.237 1389.97 164.34 1388.62 165.99C1390.42 170.156 1394.97 179.288 1398.68 182.495C1402.4 185.702 1409.66 192.476 1412.82 195.463V207.723L1409.53 220.927L1417.46 224.935L1431.02 235.545L1447.67 230.594L1457.73 224.935L1463.93 235.545L1473.22 224.935V220.927L1498 230.594L1511.56 214.325V202.065L1537.69 199.471L1546.41 190.511V170.234L1557.25 157.031V150.429V132.51V117.892L1550.47 108.696V87.4762L1546.41 79.4597H1540.4Z" fill="url(#paint5_linear_482_10383)"/>
</g>
</g>
<defs>
<filter id="filter0_n_482_10383" x="-1" y="392" width="1585" height="528.489" filterUnits="userSpaceOnUse" color-interpolation-filters="sRGB">
<feFlood flood-opacity="0" result="BackgroundImageFix"/>
<feBlend mode="normal" in="SourceGraphic" in2="BackgroundImageFix" result="shape"/>
<feTurbulence type="fractalNoise" baseFrequency="2.5 2.5" stitchTiles="stitch" numOctaves="3" result="noise" seed="7043" />
<feColorMatrix in="noise" type="luminanceToAlpha" result="alphaNoise" />
<feComponentTransfer in="alphaNoise" result="coloredNoise1">
<feFuncA type="discrete" tableValues="0 0 0 0 0 0 0 0 0 0 0 0 0 0 0 0 0 0 0 0 1 1 1 1 1 1 1 1 1 1 0 0 0 0 0 0 0 0 0 0 0 0 0 0 0 0 0 0 0 0 0 0 0 0 0 0 0 0 0 0 0 0 0 0 0 0 0 0 0 0 0 0 0 0 0 0 0 0 0 0 0 0 0 0 0 0 0 0 0 0 0 0 0 0 0 0 0 0 0 0 "/>
</feComponentTransfer>
<feComposite operator="in" in2="shape" in="coloredNoise1" result="noise1Clipped" />
<feFlood flood-color="#9DB66B" result="color1Flood" />
<feComposite operator="in" in2="noise1Clipped" in="color1Flood" result="color1" />
<feMerge result="effect1_noise_482_10383">
<feMergeNode in="shape" />
<feMergeNode in="color1" />
</feMerge>
</filter>
<filter id="filter1_f_482_10383" x="1244.65" y="384.649" width="302.718" height="144.904" filterUnits="userSpaceOnUse" color-interpolation-filters="sRGB">
<feFlood flood-opacity="0" result="BackgroundImageFix"/>
<feBlend mode="normal" in="SourceGraphic" in2="BackgroundImageFix" result="shape"/>
<feGaussianBlur stdDeviation="12.6754" result="effect1_foregroundBlur_482_10383"/>
</filter>
<filter id="filter2_f_482_10383" x="1066.65" y="440.715" width="29.3037" height="15.9391" filterUnits="userSpaceOnUse" color-interpolation-filters="sRGB">
<feFlood flood-opacity="0" result="BackgroundImageFix"/>
<feBlend mode="normal" in="SourceGraphic" in2="BackgroundImageFix" result="shape"/>
<feGaussianBlur stdDeviation="1.93529" result="effect1_foregroundBlur_482_10383"/>
</filter>
<filter id="filter3_f_482_10383" x="1332.55" y="440.715" width="29.3037" height="15.9391" filterUnits="userSpaceOnUse" color-interpolation-filters="sRGB">
<feFlood flood-opacity="0" result="BackgroundImageFix"/>
<feBlend mode="normal" in="SourceGraphic" in2="BackgroundImageFix" result="shape"/>
<feGaussianBlur stdDeviation="1.93529" result="effect1_foregroundBlur_482_10383"/>
</filter>
<filter id="filter4_f_482_10383" x="1409.13" y="507.77" width="29.3037" height="15.9391" filterUnits="userSpaceOnUse" color-interpolation-filters="sRGB">
<feFlood flood-opacity="0" result="BackgroundImageFix"/>
<feBlend mode="normal" in="SourceGraphic" in2="BackgroundImageFix" result="shape"/>
<feGaussianBlur stdDeviation="1.93529" result="effect1_foregroundBlur_482_10383"/>
</filter>
<filter id="filter5_f_482_10383" x="1002.54" y="492.098" width="29.3037" height="15.9391" filterUnits="userSpaceOnUse" color-interpolation-filters="sRGB">
<feFlood flood-opacity="0" result="BackgroundImageFix"/>
<feBlend mode="normal" in="SourceGraphic" in2="BackgroundImageFix" result="shape"/>
<feGaussianBlur stdDeviation="1.93529" result="effect1_foregroundBlur_482_10383"/>
</filter>
<filter id="filter6_f_482_10383" x="1207.08" y="434.022" width="12.8607" height="14.6628" filterUnits="userSpaceOnUse" color-interpolation-filters="sRGB">
<feFlood flood-opacity="0" result="BackgroundImageFix"/>
<feBlend mode="normal" in="SourceGraphic" in2="BackgroundImageFix" result="shape"/>
<feGaussianBlur stdDeviation="1.21471" result="effect1_foregroundBlur_482_10383"/>
</filter>
<filter id="filter7_f_482_10383" x="1549.56" y="501.076" width="12.8607" height="14.6628" filterUnits="userSpaceOnUse" color-interpolation-filters="sRGB">
<feFlood flood-opacity="0" result="BackgroundImageFix"/>
<feBlend mode="normal" in="SourceGraphic" in2="BackgroundImageFix" result="shape"/>
<feGaussianBlur stdDeviation="1.21471" result="effect1_foregroundBlur_482_10383"/>
</filter>
<filter id="filter8_f_482_10383" x="878.551" y="485.405" width="12.8607" height="14.6628" filterUnits="userSpaceOnUse" color-interpolation-filters="sRGB">
<feFlood flood-opacity="0" result="BackgroundImageFix"/>
<feBlend mode="normal" in="SourceGraphic" in2="BackgroundImageFix" result="shape"/>
<feGaussianBlur stdDeviation="1.21471" result="effect1_foregroundBlur_482_10383"/>
</filter>
<filter id="filter9_f_482_10383" x="1041.39" y="404.868" width="23.2165" height="15.9616" filterUnits="userSpaceOnUse" color-interpolation-filters="sRGB">
<feFlood flood-opacity="0" result="BackgroundImageFix"/>
<feBlend mode="normal" in="SourceGraphic" in2="BackgroundImageFix" result="shape"/>
<feGaussianBlur stdDeviation="0.823529" result="effect1_foregroundBlur_482_10383"/>
</filter>
<filter id="filter10_f_482_10383" x="1033.89" y="456.251" width="23.2165" height="15.9616" filterUnits="userSpaceOnUse" color-interpolation-filters="sRGB">
<feFlood flood-opacity="0" result="BackgroundImageFix"/>
<feBlend mode="normal" in="SourceGraphic" in2="BackgroundImageFix" result="shape"/>
<feGaussianBlur stdDeviation="0.823529" result="effect1_foregroundBlur_482_10383"/>
</filter>
<filter id="filter11_f_482_10383" x="1299.78" y="456.251" width="23.2165" height="15.9616" filterUnits="userSpaceOnUse" color-interpolation-filters="sRGB">
<feFlood flood-opacity="0" result="BackgroundImageFix"/>
<feBlend mode="normal" in="SourceGraphic" in2="BackgroundImageFix" result="shape"/>
<feGaussianBlur stdDeviation="0.823529" result="effect1_foregroundBlur_482_10383"/>
</filter>
<filter id="filter12_f_482_10383" x="1148.54" y="453.06" width="23.2165" height="15.9616" filterUnits="userSpaceOnUse" color-interpolation-filters="sRGB">
<feFlood flood-opacity="0" result="BackgroundImageFix"/>
<feBlend mode="normal" in="SourceGraphic" in2="BackgroundImageFix" result="shape"/>
<feGaussianBlur stdDeviation="0.823529" result="effect1_foregroundBlur_482_10383"/>
</filter>
<filter id="filter13_f_482_10383" x="1491.01" y="520.115" width="23.2165" height="15.9616" filterUnits="userSpaceOnUse" color-interpolation-filters="sRGB">
<feFlood flood-opacity="0" result="BackgroundImageFix"/>
<feBlend mode="normal" in="SourceGraphic" in2="BackgroundImageFix" result="shape"/>
<feGaussianBlur stdDeviation="0.823529" result="effect1_foregroundBlur_482_10383"/>
</filter>
<filter id="filter14_f_482_10383" x="926.745" y="504.444" width="23.2165" height="15.9616" filterUnits="userSpaceOnUse" color-interpolation-filters="sRGB">
<feFlood flood-opacity="0" result="BackgroundImageFix"/>
<feBlend mode="normal" in="SourceGraphic" in2="BackgroundImageFix" result="shape"/>
<feGaussianBlur stdDeviation="0.823529" result="effect1_foregroundBlur_482_10383"/>
</filter>
<filter id="filter15_f_482_10383" x="1207.78" y="401.782" width="23.2165" height="15.9616" filterUnits="userSpaceOnUse" color-interpolation-filters="sRGB">
<feFlood flood-opacity="0" result="BackgroundImageFix"/>
<feBlend mode="normal" in="SourceGraphic" in2="BackgroundImageFix" result="shape"/>
<feGaussianBlur stdDeviation="0.823529" result="effect1_foregroundBlur_482_10383"/>
</filter>
<filter id="filter16_f_482_10383" x="950.329" y="466.242" width="23.2165" height="15.9616" filterUnits="userSpaceOnUse" color-interpolation-filters="sRGB">
<feFlood flood-opacity="0" result="BackgroundImageFix"/>
<feBlend mode="normal" in="SourceGraphic" in2="BackgroundImageFix" result="shape"/>
<feGaussianBlur stdDeviation="0.823529" result="effect1_foregroundBlur_482_10383"/>
</filter>
<filter id="filter17_f_482_10383" x="1116.46" y="388.465" width="15.221" height="32.5674" filterUnits="userSpaceOnUse" color-interpolation-filters="sRGB">
<feFlood flood-opacity="0" result="BackgroundImageFix"/>
<feBlend mode="normal" in="SourceGraphic" in2="BackgroundImageFix" result="shape"/>
<feGaussianBlur stdDeviation="0.267647" result="effect1_foregroundBlur_482_10383"/>
</filter>
<filter id="filter18_f_482_10383" x="863.695" y="421.969" width="15.221" height="32.5674" filterUnits="userSpaceOnUse" color-interpolation-filters="sRGB">
<feFlood flood-opacity="0" result="BackgroundImageFix"/>
<feBlend mode="normal" in="SourceGraphic" in2="BackgroundImageFix" result="shape"/>
<feGaussianBlur stdDeviation="0.267647" result="effect1_foregroundBlur_482_10383"/>
</filter>
<filter id="filter19_f_482_10383" x="1262.03" y="412.313" width="15.221" height="32.5674" filterUnits="userSpaceOnUse" color-interpolation-filters="sRGB">
<feFlood flood-opacity="0" result="BackgroundImageFix"/>
<feBlend mode="normal" in="SourceGraphic" in2="BackgroundImageFix" result="shape"/>
<feGaussianBlur stdDeviation="0.267647" result="effect1_foregroundBlur_482_10383"/>
</filter>
<filter id="filter20_f_482_10383" x="821.244" y="463.697" width="15.221" height="32.5674" filterUnits="userSpaceOnUse" color-interpolation-filters="sRGB">
<feFlood flood-opacity="0" result="BackgroundImageFix"/>
<feBlend mode="normal" in="SourceGraphic" in2="BackgroundImageFix" result="shape"/>
<feGaussianBlur stdDeviation="0.267647" result="effect1_foregroundBlur_482_10383"/>
</filter>
<filter id="filter21_f_482_10383" x="1204.12" y="519.217" width="29.3037" height="15.9391" filterUnits="userSpaceOnUse" color-interpolation-filters="sRGB">
<feFlood flood-opacity="0" result="BackgroundImageFix"/>
<feBlend mode="normal" in="SourceGraphic" in2="BackgroundImageFix" result="shape"/>
<feGaussianBlur stdDeviation="1.93529" result="effect1_foregroundBlur_482_10383"/>
</filter>
<filter id="filter22_f_482_10383" x="1344.55" y="512.523" width="12.8607" height="14.6628" filterUnits="userSpaceOnUse" color-interpolation-filters="sRGB">
<feFlood flood-opacity="0" result="BackgroundImageFix"/>
<feBlend mode="normal" in="SourceGraphic" in2="BackgroundImageFix" result="shape"/>
<feGaussianBlur stdDeviation="1.21471" result="effect1_foregroundBlur_482_10383"/>
</filter>
<filter id="filter23_f_482_10383" x="1178.86" y="483.37" width="23.2165" height="15.9616" filterUnits="userSpaceOnUse" color-interpolation-filters="sRGB">
<feFlood flood-opacity="0" result="BackgroundImageFix"/>
<feBlend mode="normal" in="SourceGraphic" in2="BackgroundImageFix" result="shape"/>
<feGaussianBlur stdDeviation="0.823529" result="effect1_foregroundBlur_482_10383"/>
</filter>
<filter id="filter24_f_482_10383" x="1521.34" y="550.425" width="23.2165" height="15.9616" filterUnits="userSpaceOnUse" color-interpolation-filters="sRGB">
<feFlood flood-opacity="0" result="BackgroundImageFix"/>
<feBlend mode="normal" in="SourceGraphic" in2="BackgroundImageFix" result="shape"/>
<feGaussianBlur stdDeviation="0.823529" result="effect1_foregroundBlur_482_10383"/>
</filter>
<filter id="filter25_f_482_10383" x="1286" y="531.562" width="23.2165" height="15.9616" filterUnits="userSpaceOnUse" color-interpolation-filters="sRGB">
<feFlood flood-opacity="0" result="BackgroundImageFix"/>
<feBlend mode="normal" in="SourceGraphic" in2="BackgroundImageFix" result="shape"/>
<feGaussianBlur stdDeviation="0.823529" result="effect1_foregroundBlur_482_10383"/>
</filter>
<filter id="filter26_f_482_10383" x="1262.42" y="493.361" width="23.2165" height="15.9616" filterUnits="userSpaceOnUse" color-interpolation-filters="sRGB">
<feFlood flood-opacity="0" result="BackgroundImageFix"/>
<feBlend mode="normal" in="SourceGraphic" in2="BackgroundImageFix" result="shape"/>
<feGaussianBlur stdDeviation="0.823529" result="effect1_foregroundBlur_482_10383"/>
</filter>
<filter id="filter27_f_482_10383" x="1364.46" y="404.465" width="15.221" height="32.5674" filterUnits="userSpaceOnUse" color-interpolation-filters="sRGB">
<feFlood flood-opacity="0" result="BackgroundImageFix"/>
<feBlend mode="normal" in="SourceGraphic" in2="BackgroundImageFix" result="shape"/>
<feGaussianBlur stdDeviation="0.267647" result="effect1_foregroundBlur_482_10383"/>
</filter>
<filter id="filter28_f_482_10383" x="1533.46" y="440.465" width="15.221" height="32.5674" filterUnits="userSpaceOnUse" color-interpolation-filters="sRGB">
<feFlood flood-opacity="0" result="BackgroundImageFix"/>
<feBlend mode="normal" in="SourceGraphic" in2="BackgroundImageFix" result="shape"/>
<feGaussianBlur stdDeviation="0.267647" result="effect1_foregroundBlur_482_10383"/>
</filter>
<filter id="filter29_n_482_10383" x="1302" y="12" width="263.554" height="466.13" filterUnits="userSpaceOnUse" color-interpolation-filters="sRGB">
<feFlood flood-opacity="0" result="BackgroundImageFix"/>
<feBlend mode="normal" in="SourceGraphic" in2="BackgroundImageFix" result="shape"/>
<feTurbulence type="fractalNoise" baseFrequency="16.813413619995117 16.813413619995117" stitchTiles="stitch" numOctaves="3" result="noise" seed="9678" />
<feColorMatrix in="noise" type="luminanceToAlpha" result="alphaNoise" />
<feComponentTransfer in="alphaNoise" result="coloredNoise1">
<feFuncA type="discrete" tableValues="1 1 1 1 1 1 1 1 1 1 1 1 1 1 1 1 1 1 1 1 1 1 1 1 1 1 1 1 1 1 1 1 1 1 1 1 1 1 1 1 1 1 1 1 1 1 1 1 1 1 1 0 0 0 0 0 0 0 0 0 0 0 0 0 0 0 0 0 0 0 0 0 0 0 0 0 0 0 0 0 0 0 0 0 0 0 0 0 0 0 0 0 0 0 0 0 0 0 0 0 "/>
</feComponentTransfer>
<feComposite operator="in" in2="shape" in="coloredNoise1" result="noise1Clipped" />
<feFlood flood-color="rgba(0, 0, 0, 0.25)" result="color1Flood" />
<feComposite operator="in" in2="noise1Clipped" in="color1Flood" result="color1" />
<feMerge result="effect1_noise_482_10383">
<feMergeNode in="shape" />
<feMergeNode in="color1" />
</feMerge>
</filter>
<radialGradient id="paint0_radial_482_10383" cx="0" cy="0" r="1" gradientTransform="matrix(280.655 358.254 1207.57 -719.635 928.147 471.523)" gradientUnits="userSpaceOnUse">
<stop stop-color="#AFBE88"/>
<stop offset="0.639066" stop-color="#89A477"/>
</radialGradient>
<linearGradient id="paint1_linear_482_10383" x1="1471.26" y1="374.381" x2="1158.43" y2="324.311" gradientUnits="userSpaceOnUse">
<stop stop-color="#593E37"/>
<stop offset="0.0913595" stop-color="#765B49"/>
<stop offset="0.216362" stop-color="#C6AB76"/>
</linearGradient>
<linearGradient id="paint2_linear_482_10383" x1="1412.58" y1="169.001" x2="1117.72" y2="307.849" gradientUnits="userSpaceOnUse">
<stop stop-color="#92D79E"/>
<stop offset="1" stop-color="#4D7153"/>
</linearGradient>
<linearGradient id="paint3_linear_482_10383" x1="1430.72" y1="124.736" x2="1136.23" y2="263.134" gradientUnits="userSpaceOnUse">
<stop stop-color="#92D79E"/>
<stop offset="1" stop-color="#4D7153"/>
</linearGradient>
<linearGradient id="paint4_linear_482_10383" x1="1454.97" y1="85.2907" x2="1160.11" y2="224.138" gradientUnits="userSpaceOnUse">
<stop stop-color="#92D79E"/>
<stop offset="1" stop-color="#4D7153"/>
</linearGradient>
<linearGradient id="paint5_linear_482_10383" x1="1459.34" y1="44.0926" x2="1187.62" y2="157.377" gradientUnits="userSpaceOnUse">
<stop stop-color="#92D79E"/>
<stop offset="1" stop-color="#4D7153"/>
</linearGradient>
<clipPath id="clip0_482_10383">
<rect width="1580" height="842" fill="white"/>
</clipPath>
</defs>
</svg>
