<svg width="516" height="360" viewBox="0 0 516 360" fill="none" xmlns="http://www.w3.org/2000/svg">
<g filter="url(#filter0_f_539_209)">
<path d="M414.517 196.385C407.806 236.274 354.796 287.807 237.281 241.816C119.767 195.825 68.9144 194.6 119.492 155.826C170.069 117.052 212.617 89.1651 301.337 104.091C390.057 119.017 421.227 156.495 414.517 196.385Z" fill="url(#paint0_radial_539_209)" fill-opacity="0.3"/>
</g>
<path d="M309.927 86.3915C296.499 88.2796 204.687 75.1151 160.459 68.2968C157.26 74.5906 122.091 138.315 130.883 154.837C139.676 171.358 281.951 194.96 313.924 184.732C309.693 165.995 309.817 125.833 309.904 97.1838C309.916 93.3545 309.927 89.7308 309.927 86.3915Z" fill="url(#paint1_linear_539_209)"/>
<path fill-rule="evenodd" clip-rule="evenodd" d="M367.477 126.514C361.882 146.183 326.713 177.652 313.924 184.732C309.693 165.995 309.817 125.833 309.904 97.1838C309.916 93.3545 309.927 89.7308 309.927 86.3915C322.077 84.5034 332.574 78.262 336.304 75.3774C344.031 90.3251 361.082 121.479 367.477 126.514Z" fill="url(#paint2_linear_539_209)"/>
<path d="M160.459 68.2968C204.687 75.1151 296.499 88.2796 309.927 86.3915C322.077 84.5034 332.574 78.262 336.304 75.3774C330.298 75.8321 293.046 71.0298 260.98 66.896C237.569 63.878 216.922 61.2163 213.212 61.2163C204.422 61.2163 171.647 63.5765 160.459 68.2968Z" fill="#FC5954"/>
<g filter="url(#filter1_d_539_209)">
<path d="M210.587 98.8976C211.411 99.0143 212.146 99.3608 212.791 99.9371C213.453 100.516 213.948 101.24 214.277 102.111C214.606 102.982 214.7 103.916 214.559 104.914C214.419 105.896 214.071 106.76 213.513 107.505C212.955 108.25 212.276 108.817 211.478 109.204C210.698 109.579 209.896 109.707 209.072 109.591L204.7 108.971L204.998 108.577L204.301 113.496C204.243 113.908 204.067 114.238 203.773 114.488C203.481 114.721 203.129 114.809 202.717 114.75C202.321 114.694 202.016 114.513 201.8 114.208C201.587 113.887 201.51 113.521 201.568 113.109L203.515 99.3739C203.573 98.962 203.756 98.6405 204.063 98.4094C204.389 98.1646 204.758 98.0715 205.17 98.1298L210.587 98.8976ZM209.456 106.882C209.757 106.924 210.068 106.839 210.389 106.626C210.71 106.413 210.994 106.122 211.24 105.753C211.489 105.368 211.644 104.954 211.707 104.51C211.772 104.051 211.738 103.61 211.604 103.187C211.47 102.764 211.277 102.413 211.026 102.135C210.776 101.841 210.501 101.673 210.2 101.63L205.78 101.004L206.126 100.617L205.267 106.676L205.06 106.259L209.456 106.882ZM217.035 113.361C217.177 113.381 217.325 113.427 217.476 113.496C217.644 113.569 217.82 113.691 218.006 113.862C218.246 114.107 218.537 114.334 218.879 114.544C219.237 114.756 219.661 114.897 220.152 114.967C220.644 115.036 221.12 114.982 221.581 114.805C222.061 114.615 222.474 114.318 222.822 113.915C223.173 113.496 223.393 112.969 223.482 112.336C223.568 111.734 223.512 111.217 223.314 110.785C223.133 110.355 222.851 110.008 222.468 109.744C222.101 109.482 221.688 109.318 221.229 109.253C220.88 109.204 220.583 109.194 220.336 109.223C220.105 109.255 219.873 109.295 219.64 109.343C219.425 109.377 219.175 109.374 218.89 109.334C218.526 109.282 218.259 109.115 218.089 108.832C217.934 108.552 217.882 108.237 217.931 107.889C217.963 107.667 218.031 107.475 218.134 107.312C218.254 107.151 218.416 106.98 218.619 106.799L223.431 102.948L223.995 103.585L218.15 102.757C217.769 102.703 217.471 102.531 217.253 102.242C217.036 101.952 216.954 101.618 217.008 101.237C217.059 100.873 217.229 100.59 217.516 100.388C217.805 100.171 218.14 100.089 218.52 100.143L225.791 101.173C226.283 101.243 226.628 101.429 226.827 101.732C227.043 102.037 227.121 102.396 227.063 102.808C227.034 103.014 226.949 103.212 226.809 103.402C226.671 103.576 226.512 103.732 226.331 103.868L221.485 107.786L220.958 106.888C221.143 106.833 221.391 106.795 221.701 106.775C222.027 106.756 222.293 106.762 222.499 106.791C223.433 106.923 224.207 107.283 224.818 107.871C225.448 108.445 225.89 109.146 226.144 109.974C226.417 110.788 226.49 111.639 226.364 112.526C226.198 113.698 225.793 114.675 225.149 115.456C224.505 116.238 223.675 116.791 222.66 117.116C221.644 117.44 220.503 117.513 219.235 117.333C218.649 117.25 218.081 117.097 217.531 116.874C216.981 116.65 216.517 116.39 216.138 116.094C215.817 115.855 215.608 115.615 215.513 115.376C215.436 115.122 215.412 114.893 215.441 114.687C215.493 114.322 215.668 114 215.966 113.719C216.283 113.424 216.639 113.305 217.035 113.361ZM239.898 120.019C239.454 119.956 239.123 119.723 238.906 119.321L234.44 111.319L236.916 109.416L241.531 117.729C241.71 118.062 241.775 118.402 241.726 118.751C241.663 119.194 241.445 119.535 241.072 119.773C240.701 119.995 240.309 120.077 239.898 120.019ZM242.557 103.307C242.937 103.36 243.223 103.563 243.416 103.913C243.627 104.25 243.71 104.577 243.665 104.894C243.618 105.226 243.431 105.515 243.106 105.76L231.799 113.878L232.162 110.463L241.315 103.688C241.731 103.375 242.145 103.248 242.557 103.307ZM229.917 118.605C229.474 118.542 229.136 118.356 228.905 118.049C228.676 117.726 228.591 117.358 228.649 116.946L230.596 103.211C230.654 102.8 230.845 102.479 231.168 102.25C231.494 102.006 231.878 101.915 232.322 101.977C232.765 102.04 233.094 102.232 233.307 102.553C233.538 102.861 233.624 103.22 233.566 103.632L231.62 117.367C231.561 117.779 231.377 118.108 231.068 118.355C230.76 118.587 230.377 118.67 229.917 118.605ZM163.566 121.524L171.526 122.652C171.938 122.71 172.259 122.893 172.491 123.201C172.74 123.495 172.835 123.848 172.777 124.259C172.721 124.656 172.532 124.96 172.211 125.173C171.908 125.373 171.551 125.443 171.139 125.385L164.485 124.442L164.756 124.068L164.1 128.702L163.937 128.485L169.497 129.273C169.909 129.331 170.23 129.514 170.462 129.822C170.711 130.116 170.806 130.468 170.748 130.88C170.692 131.276 170.503 131.581 170.182 131.794C169.879 131.993 169.522 132.064 169.11 132.006L163.621 131.228L163.766 131.055L163.086 135.855L162.926 135.614L169.556 136.553C169.968 136.612 170.288 136.802 170.517 137.126C170.764 137.435 170.862 137.772 170.81 138.137C170.754 138.533 170.566 138.837 170.245 139.051C169.939 139.266 169.581 139.344 169.169 139.286L161.208 138.158C160.797 138.1 160.467 137.915 160.22 137.606C159.991 137.282 159.906 136.915 159.964 136.503L161.911 122.768C161.969 122.356 162.152 122.035 162.459 121.804C162.785 121.559 163.154 121.466 163.566 121.524ZM181.632 127.841C182.9 128.021 183.791 128.462 184.305 129.165C184.822 129.853 185.107 130.693 185.16 131.686L184.786 131.415L185.03 131.062C185.272 130.725 185.62 130.378 186.074 130.022C186.531 129.651 187.057 129.361 187.652 129.155C188.265 128.935 188.92 128.874 189.617 128.973C190.757 129.134 191.586 129.502 192.102 130.076C192.635 130.653 192.953 131.369 193.058 132.224C193.166 133.063 193.149 133.982 193.007 134.98L192.145 141.063C192.087 141.475 191.903 141.804 191.593 142.051C191.286 142.283 190.926 142.369 190.514 142.311C190.102 142.252 189.781 142.069 189.55 141.762C189.321 141.439 189.235 141.071 189.294 140.659L190.156 134.576C190.23 134.053 190.233 133.577 190.164 133.147C190.098 132.701 189.917 132.328 189.62 132.027C189.323 131.727 188.866 131.533 188.248 131.445C187.646 131.36 187.113 131.414 186.65 131.607C186.186 131.799 185.813 132.094 185.531 132.49C185.266 132.873 185.097 133.326 185.023 133.849L184.161 139.932C184.103 140.344 183.919 140.673 183.609 140.92C183.301 141.151 182.942 141.238 182.53 141.179C182.118 141.121 181.796 140.938 181.565 140.63C181.336 140.307 181.251 139.94 181.31 139.528L182.172 133.444C182.246 132.922 182.248 132.445 182.18 132.016C182.114 131.57 181.933 131.197 181.636 130.896C181.339 130.595 180.882 130.401 180.264 130.314C179.662 130.229 179.129 130.282 178.665 130.475C178.202 130.668 177.829 130.963 177.546 131.359C177.282 131.742 177.113 132.194 177.039 132.717L176.177 138.8C176.118 139.212 175.934 139.542 175.625 139.789C175.317 140.02 174.958 140.106 174.546 140.048C174.134 139.989 173.812 139.807 173.581 139.499C173.352 139.176 173.267 138.808 173.325 138.396L174.716 128.582C174.774 128.17 174.957 127.849 175.265 127.618C175.574 127.371 175.935 127.276 176.347 127.335C176.759 127.393 177.079 127.584 177.308 127.907C177.539 128.215 177.626 128.574 177.567 128.986L177.423 130.008L177.076 129.886C177.257 129.637 177.495 129.38 177.792 129.115C178.09 128.834 178.44 128.585 178.843 128.367C179.245 128.15 179.68 127.993 180.146 127.897C180.614 127.786 181.11 127.767 181.632 127.841ZM208.258 138.353C208.074 139.652 207.618 140.759 206.89 141.674C206.181 142.575 205.296 143.234 204.235 143.649C203.19 144.066 202.066 144.19 200.862 144.019C199.658 143.849 198.604 143.417 197.7 142.723C196.813 142.032 196.145 141.153 195.698 140.088C195.269 139.009 195.147 137.82 195.331 136.521C195.515 135.222 195.962 134.122 196.671 133.221C197.399 132.306 198.285 131.639 199.33 131.222C200.393 130.791 201.527 130.66 202.731 130.831C203.935 131.002 204.979 131.441 205.865 132.148C206.768 132.841 207.435 133.728 207.864 134.807C208.311 135.872 208.442 137.054 208.258 138.353ZM205.406 137.949C205.521 137.141 205.453 136.42 205.204 135.787C204.972 135.14 204.603 134.611 204.095 134.2C203.604 133.791 203.025 133.539 202.36 133.445C201.695 133.351 201.061 133.431 200.46 133.685C199.874 133.941 199.372 134.347 198.954 134.901C198.554 135.443 198.297 136.117 198.183 136.925C198.07 137.717 198.13 138.437 198.361 139.084C198.611 139.717 198.982 140.238 199.473 140.647C199.98 141.058 200.567 141.311 201.232 141.405C201.897 141.5 202.523 141.419 203.109 141.162C203.71 140.908 204.211 140.511 204.611 139.969C205.029 139.414 205.294 138.741 205.406 137.949ZM209.397 142.975C209.27 142.73 209.239 142.435 209.305 142.089C209.37 141.743 209.618 141.471 210.05 141.273C210.326 141.151 210.605 141.126 210.885 141.198C211.168 141.254 211.425 141.436 211.656 141.743C212.051 142.268 212.483 142.693 212.954 143.018C213.425 143.343 214.041 143.56 214.801 143.668C215.041 143.685 215.307 143.691 215.599 143.684C215.893 143.661 216.157 143.569 216.39 143.408C216.641 143.233 216.795 142.94 216.854 142.528C216.903 142.18 216.824 141.886 216.615 141.646C216.407 141.406 216.114 141.187 215.739 140.989C215.379 140.792 214.97 140.597 214.513 140.403C214.042 140.191 213.557 139.96 213.059 139.712C212.577 139.466 212.141 139.178 211.752 138.848C211.364 138.502 211.068 138.081 210.864 137.583C210.66 137.085 210.607 136.488 210.706 135.791C210.818 134.999 211.136 134.357 211.658 133.866C212.18 133.374 212.811 133.027 213.55 132.825C214.306 132.625 215.072 132.58 215.848 132.69C216.339 132.759 216.845 132.896 217.366 133.099C217.889 133.286 218.377 133.549 218.829 133.888C219.285 134.211 219.648 134.61 219.92 135.085C220.061 135.347 220.123 135.647 220.108 135.984C220.093 136.321 219.899 136.601 219.529 136.823C219.264 136.98 218.974 137.027 218.66 136.967C218.347 136.89 218.102 136.742 217.923 136.523C217.703 136.136 217.378 135.807 216.948 135.536C216.533 135.268 216.033 135.092 215.447 135.009C215.209 134.975 214.943 134.969 214.649 134.992C214.373 135.002 214.119 135.087 213.886 135.248C213.655 135.393 213.512 135.664 213.456 136.06C213.404 136.424 213.481 136.734 213.687 136.989C213.896 137.229 214.188 137.448 214.564 137.647C214.958 137.832 215.376 138.02 215.817 138.212C216.274 138.406 216.736 138.625 217.203 138.869C217.669 139.113 218.088 139.407 218.459 139.75C218.831 140.094 219.111 140.513 219.299 141.008C219.49 141.488 219.536 142.076 219.437 142.773C219.322 143.581 218.987 144.237 218.431 144.739C217.875 145.242 217.219 145.594 216.464 145.794C215.71 145.978 214.961 146.017 214.217 145.912C213.282 145.779 212.37 145.489 211.48 145.039C210.593 144.574 209.898 143.886 209.397 142.975ZM224.209 145.607C224.15 146.019 223.966 146.348 223.656 146.595C223.349 146.826 222.989 146.913 222.577 146.854C222.166 146.796 221.844 146.613 221.613 146.305C221.384 145.982 221.299 145.614 221.357 145.203L222.748 135.389C222.806 134.977 222.989 134.655 223.297 134.424C223.606 134.177 223.967 134.083 224.379 134.141C224.791 134.2 225.111 134.39 225.34 134.714C225.571 135.021 225.658 135.381 225.599 135.793L224.209 145.607ZM224.574 132.593C224.035 132.517 223.668 132.376 223.47 132.17C223.273 131.965 223.206 131.64 223.269 131.196L223.333 130.745C223.398 130.285 223.561 129.993 223.821 129.869C224.099 129.73 224.492 129.697 224.999 129.769C225.553 129.847 225.929 129.99 226.126 130.195C226.323 130.401 226.39 130.726 226.327 131.169L226.263 131.621C226.198 132.08 226.034 132.38 225.772 132.521C225.512 132.645 225.113 132.67 224.574 132.593ZM240.166 142.874C239.982 144.173 239.526 145.28 238.798 146.195C238.089 147.097 237.204 147.755 236.143 148.17C235.098 148.588 233.973 148.711 232.77 148.541C231.566 148.37 230.512 147.938 229.608 147.244C228.72 146.553 228.053 145.675 227.606 144.609C227.177 143.531 227.055 142.342 227.239 141.043C227.423 139.744 227.87 138.643 228.579 137.742C229.307 136.827 230.193 136.161 231.238 135.743C232.301 135.312 233.434 135.182 234.638 135.353C235.842 135.523 236.887 135.962 237.773 136.669C238.676 137.363 239.342 138.249 239.771 139.328C240.218 140.393 240.35 141.575 240.166 142.874ZM237.314 142.47C237.429 141.662 237.361 140.942 237.111 140.309C236.88 139.662 236.511 139.133 236.003 138.721C235.512 138.312 234.933 138.061 234.268 137.966C233.603 137.872 232.969 137.952 232.368 138.206C231.782 138.463 231.28 138.868 230.862 139.423C230.462 139.964 230.205 140.639 230.09 141.447C229.978 142.239 230.038 142.958 230.269 143.605C230.519 144.238 230.889 144.76 231.381 145.169C231.888 145.58 232.475 145.833 233.14 145.927C233.805 146.021 234.431 145.94 235.017 145.684C235.618 145.43 236.119 145.032 236.519 144.491C236.937 143.936 237.202 143.262 237.314 142.47ZM250.394 137.585C251.566 137.751 252.418 138.123 252.951 138.699C253.499 139.278 253.825 139.994 253.93 140.85C254.054 141.691 254.044 142.611 253.903 143.609L253.041 149.692C252.983 150.104 252.799 150.434 252.489 150.681C252.181 150.912 251.822 150.998 251.41 150.94C250.998 150.881 250.676 150.699 250.445 150.391C250.216 150.068 250.131 149.7 250.19 149.288L251.052 143.205C251.126 142.682 251.121 142.205 251.036 141.773C250.97 141.327 250.781 140.953 250.468 140.65C250.156 140.347 249.675 140.15 249.025 140.058C248.391 139.968 247.835 140.018 247.355 140.209C246.892 140.402 246.511 140.695 246.213 141.089C245.932 141.47 245.755 141.921 245.681 142.444L244.819 148.527C244.761 148.939 244.577 149.269 244.267 149.516C243.96 149.747 243.6 149.833 243.188 149.775C242.776 149.716 242.455 149.533 242.223 149.226C241.995 148.903 241.909 148.535 241.968 148.123L243.358 138.309C243.417 137.897 243.6 137.576 243.907 137.345C244.217 137.098 244.578 137.003 244.989 137.062C245.401 137.12 245.722 137.311 245.951 137.634C246.182 137.942 246.268 138.301 246.21 138.713L246.065 139.735L245.719 139.613C245.899 139.364 246.146 139.108 246.458 138.845C246.772 138.567 247.13 138.319 247.533 138.101C247.935 137.883 248.378 137.728 248.859 137.634C249.344 137.525 249.855 137.509 250.394 137.585ZM268.161 140.103C268.573 140.161 268.894 140.344 269.125 140.652C269.357 140.959 269.442 141.327 269.381 141.754L267.957 151.806C267.899 152.218 267.714 152.547 267.405 152.794C267.097 153.025 266.738 153.112 266.326 153.053C265.914 152.995 265.592 152.812 265.361 152.505C265.132 152.181 265.047 151.814 265.105 151.402L265.27 150.238L265.763 150.526C265.734 150.731 265.587 150.969 265.322 151.239C265.06 151.492 264.719 151.735 264.298 151.966C263.878 152.198 263.391 152.379 262.839 152.511C262.305 152.629 261.738 152.646 261.136 152.56C260.042 152.406 259.092 151.988 258.283 151.308C257.477 150.612 256.882 149.736 256.498 148.679C256.133 147.61 256.041 146.433 256.223 145.15C256.407 143.851 256.822 142.746 257.468 141.836C258.132 140.912 258.939 140.234 259.889 139.803C260.841 139.357 261.848 139.208 262.909 139.359C263.591 139.455 264.202 139.647 264.743 139.934C265.284 140.22 265.738 140.551 266.105 140.927C266.488 141.304 266.767 141.675 266.941 142.039C267.134 142.389 267.215 142.676 267.183 142.897L266.284 143.085L266.53 141.35C266.588 140.938 266.771 140.617 267.078 140.386C267.388 140.139 267.749 140.045 268.161 140.103ZM261.862 149.997C262.559 150.096 263.194 150.008 263.766 149.734C264.338 149.459 264.81 149.041 265.18 148.48C265.566 147.92 265.812 147.268 265.918 146.524C266.026 145.763 265.972 145.061 265.756 144.416C265.556 143.774 265.219 143.241 264.746 142.819C264.273 142.396 263.687 142.135 262.99 142.037C262.309 141.94 261.683 142.029 261.11 142.303C260.538 142.578 260.059 142.995 259.673 143.554C259.302 144.116 259.063 144.777 258.955 145.537C258.85 146.282 258.897 146.975 259.097 147.617C259.313 148.262 259.657 148.796 260.131 149.218C260.604 149.641 261.181 149.901 261.862 149.997ZM274.133 152.681C274.075 153.093 273.883 153.421 273.558 153.666C273.25 153.897 272.89 153.984 272.479 153.925C272.083 153.869 271.769 153.687 271.538 153.38C271.309 153.057 271.224 152.689 271.282 152.277L273.363 137.592C273.421 137.18 273.604 136.858 273.912 136.627C274.237 136.383 274.606 136.289 275.018 136.348C275.43 136.406 275.742 136.596 275.955 136.917C276.186 137.224 276.273 137.584 276.214 137.996L274.133 152.681Z" fill="white"/>
</g>
<path d="M326.749 105.263C326.977 106.216 328.249 116.063 328.249 117.263C328.249 118.763 320.749 124.763 319.749 123.763C318.749 122.763 320.749 137.263 321.749 137.263C322.749 137.263 332.249 130.763 332.249 129.263C332.249 127.763 334.749 142.263 334.249 144.763C338.649 143.963 343.082 139.43 344.749 137.263C343.916 134.263 342.049 127.963 341.249 126.763C343.249 125.763 349.249 121.763 349.249 121.263C349.249 120.763 345.749 112.763 345.249 110.763C343.649 111.963 340.249 113.597 338.749 114.263C336.477 109.716 335.277 102.616 334.477 102.216C333.677 101.816 328.977 104.716 326.749 105.263Z" fill="#D9D9D9"/>
<path d="M245.629 51.8958C239.632 56.4872 224.404 62.1455 216.629 64.4465C214.737 65.0062 214.737 66.3291 213.477 68.2117C222.555 69.7177 241.846 62.3547 249.411 57.5436C254.875 53.3601 269.585 49.3858 272.737 58.7987C273.998 81.3897 296.694 80.7623 300.477 77.6246C285.346 75.1145 286.607 68.2115 281.564 56.2884C276.52 44.3653 253.824 45.6206 245.629 51.8958Z" fill="#603F3F"/>
<path d="M322.977 83.2163L327.477 98.2163L330.977 95.2163L327.477 80.2163L192.477 62.2163L179.977 64.2163L322.977 83.2163Z" fill="#603F3F"/>
<defs>
<filter id="filter0_f_539_209" x="0" y="0" width="515.396" height="359.907" filterUnits="userSpaceOnUse" color-interpolation-filters="sRGB">
<feFlood flood-opacity="0" result="BackgroundImageFix"/>
<feBlend mode="normal" in="SourceGraphic" in2="BackgroundImageFix" result="shape"/>
<feGaussianBlur stdDeviation="50" result="effect1_foregroundBlur_539_209"/>
</filter>
<filter id="filter1_d_539_209" x="149.726" y="86.4868" width="140.646" height="81.8813" filterUnits="userSpaceOnUse" color-interpolation-filters="sRGB">
<feFlood flood-opacity="0" result="BackgroundImageFix"/>
<feColorMatrix in="SourceAlpha" type="matrix" values="0 0 0 0 0 0 0 0 0 0 0 0 0 0 0 0 0 0 127 0" result="hardAlpha"/>
<feOffset dy="4"/>
<feGaussianBlur stdDeviation="5"/>
<feComposite in2="hardAlpha" operator="out"/>
<feColorMatrix type="matrix" values="0 0 0 0 0 0 0 0 0 0 0 0 0 0 0 0 0 0 0.1 0"/>
<feBlend mode="normal" in2="BackgroundImageFix" result="effect1_dropShadow_539_209"/>
<feBlend mode="normal" in="SourceGraphic" in2="effect1_dropShadow_539_209" result="shape"/>
</filter>
<radialGradient id="paint0_radial_539_209" cx="0" cy="0" r="1" gradientTransform="matrix(-30.5358 100.517 -465.812 -141.044 229.265 170.72)" gradientUnits="userSpaceOnUse">
<stop stop-color="#150E04"/>
<stop offset="1" stop-color="#150E04" stop-opacity="0"/>
</radialGradient>
<linearGradient id="paint1_linear_539_209" x1="248.477" y1="61.2163" x2="248.477" y2="187.216" gradientUnits="userSpaceOnUse">
<stop stop-color="#D44341"/>
<stop offset="1" stop-color="#A01515"/>
</linearGradient>
<linearGradient id="paint2_linear_539_209" x1="248.477" y1="61.2163" x2="248.477" y2="187.216" gradientUnits="userSpaceOnUse">
<stop stop-color="#C75151"/>
<stop offset="1" stop-color="#9F3333"/>
</linearGradient>
</defs>
</svg>
