<svg width="364" height="406" viewBox="0 0 364 406" fill="none" xmlns="http://www.w3.org/2000/svg">
<path d="M159.741 17.7741C160.661 35.2417 158.209 47.4997 164.951 63.7416C171.693 79.9834 154.531 387.353 159.741 398.691C161.853 403.288 167.24 405.316 173.144 405.633V3.22421C165.538 5.85241 159.352 10.3713 159.741 17.7741Z" fill="#69452B"/>
<path d="M190.08 0.103733C188.064 0.21871 185.85 0.432369 183.563 0.769203C186.095 5.86183 190.174 20.1831 192.197 44.6801C191.574 27.3647 190.786 11.6889 190.08 0.103733Z" fill="#BB9A68"/>
<path d="M181.262 392.874V352.131V291.849V264.41V231.983L177.104 174.611V24.9444L181.262 174.611L182.925 231.983L181.262 392.874Z" fill="#7D5B46"/>
<path d="M184.588 103.935V123.059V134.284L188.329 139.688V144.262L190.08 137.194L185.419 133.452L184.588 103.935Z" fill="#7D5B46"/>
<path fill-rule="evenodd" clip-rule="evenodd" d="M173.144 3.22421V405.633C181.801 406.098 191.571 402.882 193.757 398.691C195.205 395.915 193.802 366.285 192.017 328.613C189.271 270.627 185.621 193.589 190.08 166.096C192.899 148.71 193.579 119.108 193.254 88.564C193.095 73.7274 192.7 58.6687 192.197 44.6801C190.174 20.1831 186.095 5.86183 183.563 0.769203C180.108 1.27816 176.489 2.06833 173.144 3.22421ZM181.262 352.131V392.874L182.925 231.983L181.262 174.611L177.104 24.9444V174.611L181.262 231.983V264.41V291.849V352.131ZM184.588 103.935V123.059V134.284L188.329 139.688V144.262L190.08 137.194L185.419 133.452L184.588 103.935ZM180.846 21.6184L177.104 7.48331L185.835 21.6184H180.846Z" fill="#85634E"/>
<path d="M177.104 7.48331L180.846 21.6184H185.835L177.104 7.48331Z" fill="#7F5D48"/>
<path d="M353.03 41.6771C353.03 38.2921 350.286 35.5481 346.901 35.5481H6.129C2.74405 35.5481 0 38.2921 0 41.6771V43.2093C105.01 40.7577 322.63 37.3255 353.03 43.2093V41.6771Z" fill="#B39262"/>
<path d="M39.2256 56.0802H0L38.311 58.774C38.9173 58.8166 39.514 58.9492 40.0813 59.1674L54.8263 64.8385C55.0446 64.9225 55.2828 64.9409 55.5115 64.8915L55.6425 64.8632C57.0331 64.5625 56.8143 62.5157 55.3916 62.5157C55.2393 62.5157 55.0884 62.4864 54.9471 62.4293L39.2256 56.0802Z" fill="#69452B"/>
<path d="M39.2256 76.3059H10.8279H0V81.2091L39.2256 76.3059Z" fill="#69452B"/>
<path d="M9.62474 93.6396C9.33766 93.5248 9.04229 93.4318 8.74118 93.3616L0 91.322V91.9349L8.2277 93.6371C8.66595 93.7278 9.09294 93.8662 9.50105 94.0499L13.189 95.7094C14.3761 96.2436 15.7025 96.386 16.9759 96.1159L24.066 94.6119C24.7691 94.4628 25.493 94.4385 26.2045 94.5401L35.8546 95.9187L26.5584 93.7939C25.6187 93.5791 24.6415 93.589 23.7062 93.8228L17.7741 95.3058L17.2452 95.438C15.9952 95.7505 14.6786 95.6612 13.4824 95.1827L9.62474 93.6396Z" fill="#69452B"/>
<path d="M0 91.322L8.74118 93.3616C9.04229 93.4318 9.33766 93.5248 9.62474 93.6396L13.4824 95.1827C14.6786 95.6612 15.9952 95.7505 17.2452 95.438L17.7741 95.3058L5.06649 90.8581C3.4042 90.2763 1.57195 90.4377 0.0369611 91.3012L0 91.322Z" fill="#85634E"/>
<path d="M1.89801 73.8543L0 76.3059H10.8279L10.1293 74.3949L1.89801 73.8543Z" fill="#85634E"/>
<path d="M10.8279 76.3059H39.2256L10.1293 74.3949L10.8279 76.3059Z" fill="#85634E"/>
<path d="M0 103.273V106.032C0 109.416 2.74405 112.161 6.129 112.161H30.9514L21.4515 110.935H15.3957C14.3432 110.935 13.3083 110.664 12.3909 110.148L9.68833 108.627C9.163 108.332 8.57043 108.177 7.9677 108.177C6.58229 108.177 5.24141 107.687 4.1817 106.795L0 103.273Z" fill="#6E4F3B"/>
<path d="M348.74 89.9429H336.388C335.247 89.9429 334.13 89.6247 333.16 89.024L323.431 82.9966C321.637 81.8845 319.396 81.7746 317.501 82.7058L302.772 89.9429L317.933 84.0616C319.593 83.4178 321.45 83.5273 323.023 84.3617L334.215 90.3006C335.1 90.77 336.086 91.0155 337.088 91.0155H353.03V89.9429H352.111H348.74Z" fill="#6C4318"/>
<path d="M353.03 57.9189C353.03 57.9189 341.271 56.7153 338.321 57.9189C337.7 58.1723 337.072 58.3848 336.462 58.5915C334.172 59.3668 332.126 60.06 331.579 62.5157C331.067 64.811 335.541 63.9301 339.479 63.1548C340.877 62.8795 342.208 62.6174 343.224 62.5157C346.168 62.2208 350.295 61.3137 352.111 60.894C352.687 60.761 353.03 60.677 353.03 60.677V57.9189Z" fill="#634B3C"/>
<path d="M353.03 89.9429V60.677C353.03 60.677 352.687 60.761 352.111 60.894V89.9429H353.03Z" fill="#B39262"/>
<path d="M91.935 57.8083C91.935 57.0296 92.7865 56.2453 93.5628 56.3054C110.162 57.5892 246.727 57.9189 316.563 57.9189L92.965 58.8341C92.3968 58.8364 91.935 58.3764 91.935 57.8083Z" fill="#7D5B46"/>
<path d="M137.902 70.4834L95.9188 73.8543H137.902L178.047 76.3059L208.439 78.0937C193.082 76.6767 179.642 75.2239 178.047 74.3949C175.105 72.8661 164.564 71.1502 159.66 70.4834H137.902Z" fill="#7D5B46"/>
<path fill-rule="evenodd" clip-rule="evenodd" d="M352.111 89.9429H348.74H336.388C335.247 89.9429 334.13 89.6247 333.16 89.024L323.431 82.9966C321.637 81.8845 319.396 81.7746 317.501 82.7058L302.772 89.9429L317.933 84.0616C319.593 83.4178 321.45 83.5273 323.023 84.3617L334.215 90.3006C335.1 90.77 336.086 91.0155 337.088 91.0155H353.03V106.032C353.03 109.416 350.286 112.161 346.901 112.161H30.9514L21.4515 110.935H15.3957C14.3432 110.935 13.3083 110.664 12.3909 110.148L9.68833 108.627C9.163 108.332 8.57043 108.177 7.9677 108.177C6.58229 108.177 5.24141 107.687 4.1817 106.795L0 103.273V91.9349L8.2277 93.6371C8.66595 93.7278 9.09294 93.8662 9.50105 94.0499L13.189 95.7094C14.3761 96.2436 15.7025 96.386 16.9759 96.1159L24.066 94.6119C24.7691 94.4628 25.493 94.4385 26.2045 94.5401L35.8546 95.9187L26.5584 93.7939C25.6187 93.5791 24.6415 93.589 23.7062 93.8228L17.7741 95.3058L0 81.2091L39.2256 76.3059L0 56.0802L38.311 58.774C38.9173 58.8166 39.514 58.9492 40.0813 59.1674L54.8263 64.8385C55.0446 64.9225 55.2828 64.9409 55.5115 64.8915L55.6425 64.8632C57.0331 64.5625 56.8143 62.5157 55.3916 62.5157C55.2393 62.5157 55.0884 62.4864 54.9471 62.4293L39.2256 56.0802L0 43.2093C105.01 40.7577 322.63 37.3255 353.03 43.2093V57.9189C353.03 57.9189 341.271 56.7153 338.321 57.9189C337.7 58.1723 337.072 58.3848 336.462 58.5915C334.172 59.3668 332.126 60.06 331.579 62.5157C331.067 64.811 335.541 63.9301 339.479 63.1548C340.877 62.8795 342.208 62.6174 343.224 62.5157C346.168 62.2208 350.295 61.3137 352.111 60.894V89.9429ZM39.2256 56.0802H0C0 54.2671 1.55212 52.8427 3.35857 52.9979L39.2256 56.0802ZM316.563 57.9189C246.727 57.9189 110.162 57.5892 93.5628 56.3054C92.7865 56.2453 91.935 57.0296 91.935 57.8083C91.935 58.3764 92.3968 58.8364 92.965 58.8341L316.563 57.9189ZM137.902 70.4834L95.9188 73.8543H137.902L178.047 76.3059L208.439 78.0937C193.082 76.6767 179.642 75.2239 178.047 74.3949C175.105 72.8661 164.564 71.1502 159.66 70.4834H137.902ZM113.999 93.4671H55.161L112.774 94.6929L153.371 100.146C153.682 100.188 153.995 100.206 154.309 100.2L215.741 98.9832L260.946 102.314C262.908 102.459 263.472 99.6903 261.611 99.0546C261.472 99.0072 261.328 98.9782 261.181 98.9684L215.741 95.9187L160.197 98.9539C159.84 98.9734 159.482 98.9616 159.127 98.9188L113.999 93.4671Z" fill="#85634E"/>
<path d="M55.161 93.4671H113.999L159.127 98.9188C159.482 98.9616 159.84 98.9734 160.197 98.9539L215.741 95.9187L261.181 98.9684C261.328 98.9782 261.472 99.0072 261.611 99.0546C263.472 99.6903 262.908 102.459 260.946 102.314L215.741 98.9832L154.309 100.2C153.995 100.206 153.682 100.188 153.371 100.146L112.774 94.6929L55.161 93.4671Z" fill="#7D5B46"/>
<path d="M247.252 66.244L205.268 69.615H247.252L287.396 72.0666L317.788 73.8543C302.431 72.4373 288.992 70.9845 287.396 70.1556C284.455 68.6268 273.913 66.9109 269.009 66.244H247.252Z" fill="#7D5B46"/>
<path d="M42.903 44.4351H101.741L146.869 49.8868C147.224 49.9297 147.582 49.9414 147.939 49.9219L203.483 46.8867L248.923 49.9364C249.07 49.9463 249.214 49.9752 249.353 50.0226C251.214 50.6583 250.65 53.4267 248.688 53.2821L203.483 49.9512L142.051 51.1677C141.737 51.1739 141.424 51.1561 141.113 51.1144L100.516 45.6609L42.903 44.4351Z" fill="#7D5B46"/>
<path d="M49.9513 80.8517L7.9677 84.2227H49.9513L90.0963 86.6743L120.488 88.462C105.131 87.045 91.6914 85.5922 90.0963 84.7633C87.1543 83.2345 76.6125 81.5186 71.7093 80.8517H49.9513Z" fill="#7D5B46"/>
<path d="M288.817 100.314C288.016 100.255 287.396 99.5876 287.396 98.7844C287.396 97.897 288.147 97.1949 289.033 97.2543L332.837 100.194C332.983 100.204 333.128 100.233 333.267 100.28C335.128 100.916 334.563 103.684 332.601 103.54L288.817 100.314Z" fill="#7D5B46"/>
<path d="M10.0532 170.187C10.0239 166.802 12.7441 164.035 16.1289 164.005L356.888 161.053C360.273 161.024 363.041 163.744 363.07 167.129L363.083 168.661C258.056 167.119 40.4142 165.572 10.0665 171.719L10.0532 170.187Z" fill="#B39262"/>
<path d="M323.971 181.871L363.195 181.531L326.744 184.412C325.258 184.529 323.984 183.362 323.971 181.871Z" fill="#69452B"/>
<path d="M353.225 199.933L352.543 201.85L363.37 201.756L363.413 206.659L353.225 199.933Z" fill="#69452B"/>
<path d="M354.326 218.996L354.635 219.3L350.35 221.273C349.167 221.818 347.842 221.972 346.567 221.713L339.464 220.27C338.759 220.127 338.035 220.109 337.325 220.217L327.687 221.679L337.718 219.294C338.165 219.188 338.623 219.133 339.082 219.129L354.326 218.996Z" fill="#69452B"/>
<path d="M358.359 199.551C360.292 199.407 362.17 200.234 363.37 201.756L352.543 201.85L353.225 199.933L358.359 199.551Z" fill="#85634E"/>
<path d="M363.604 228.723L363.628 231.481C363.657 234.866 360.937 237.633 357.552 237.663L332.731 237.878L342.22 236.57L348.275 236.517C349.328 236.508 350.36 236.228 351.273 235.704L353.962 234.161C354.485 233.86 355.076 233.7 355.679 233.695C357.064 233.683 358.401 233.182 359.453 232.28L363.604 228.723Z" fill="#6E4F3B"/>
<path d="M14.7615 218.414L27.1129 218.307C28.2534 218.297 29.3686 217.969 30.3328 217.36L40.0088 211.249C41.794 210.121 44.0339 209.992 45.937 210.907L60.7273 218.016L45.5161 212.266C43.851 211.637 41.9946 211.762 40.4295 212.61L29.2888 218.646C28.4081 219.123 27.4239 219.377 26.4223 219.386L10.4806 219.524L10.4714 218.451L11.3907 218.443L14.7615 218.414Z" fill="#6C4318"/>
<path d="M10.1939 186.428C10.1939 186.428 21.9421 185.123 24.903 186.301C25.5261 186.549 26.1555 186.756 26.7675 186.957C29.0636 187.713 31.116 188.388 31.6844 190.839C32.2157 193.13 27.7344 192.288 23.7901 191.547C22.3895 191.283 21.0565 191.033 20.0398 190.94C17.0936 190.671 12.9589 189.799 11.139 189.395C10.5621 189.267 10.2178 189.186 10.2178 189.186L10.1939 186.428Z" fill="#634B3C"/>
<path d="M10.4714 218.451L10.2178 189.186C10.2178 189.186 10.5621 189.267 11.139 189.395L11.3907 218.443L10.4714 218.451Z" fill="#B39262"/>
<path d="M271.278 184.056C271.272 183.277 270.413 182.5 269.638 182.567C253.051 183.995 116.493 185.507 46.6601 186.113L270.257 185.09C270.826 185.088 271.283 184.624 271.278 184.056Z" fill="#7D5B46"/>
<path d="M225.422 197.129L267.434 200.136L225.452 200.499L185.33 203.299L154.954 205.35C170.299 203.8 183.725 202.231 185.313 201.388C188.242 199.834 198.768 198.026 203.665 197.317L225.422 197.129Z" fill="#7D5B46"/>
<path fill-rule="evenodd" clip-rule="evenodd" d="M11.3907 218.443L14.7615 218.414L27.1129 218.307C28.2534 218.297 29.3686 217.969 30.3328 217.36L40.0088 211.249C41.794 210.121 44.0339 209.992 45.937 210.907L60.7273 218.016L45.5161 212.266C43.851 211.637 41.9946 211.762 40.4295 212.61L29.2888 218.646C28.4081 219.123 27.4239 219.377 26.4223 219.386L10.4806 219.524L10.6107 234.539C10.6401 237.924 13.4078 240.644 16.7926 240.615L332.731 237.878L342.22 236.57L348.275 236.517C349.328 236.508 350.36 236.228 351.273 235.704L353.962 234.161C354.485 233.86 355.076 233.7 355.679 233.695C357.064 233.683 358.401 233.182 359.453 232.28L363.604 228.723C360.508 231.752 355.285 229.744 355.016 225.421L354.635 219.3L350.35 221.273C349.167 221.818 347.842 221.972 346.567 221.713L339.464 220.27C338.759 220.127 338.035 220.109 337.325 220.217L327.687 221.679L337.718 219.294C338.165 219.188 338.623 219.133 339.082 219.129L354.326 218.996L363.413 206.659L353.225 199.933L363.195 181.531L326.744 184.412C325.258 184.529 323.984 183.362 323.971 181.871L363.083 168.661C258.056 167.119 40.4142 165.572 10.0665 171.719L10.1939 186.428C10.1939 186.428 21.9421 185.123 24.903 186.301C25.5261 186.549 26.1555 186.756 26.7675 186.957C29.0636 187.713 31.116 188.388 31.6844 190.839C32.2157 193.13 27.7344 192.288 23.7901 191.547C22.3895 191.283 21.0565 191.033 20.0398 190.94C17.0936 190.671 12.9589 189.799 11.139 189.395L11.3907 218.443ZM323.971 181.871L363.195 181.531C363.179 179.718 361.615 178.307 359.81 178.478L323.971 181.871ZM46.6601 186.113C116.493 185.507 253.051 183.995 269.638 182.567C270.413 182.5 271.272 183.277 271.278 184.056C271.283 184.624 270.826 185.088 270.257 185.09L46.6601 186.113ZM225.422 197.129L267.434 200.136L225.452 200.499L185.33 203.299L154.954 205.35C170.299 203.8 183.725 202.231 185.313 201.388C188.242 199.834 198.768 198.026 203.665 197.317L225.422 197.129ZM249.524 219.904L308.36 219.395L250.76 221.12L210.211 226.925C209.901 226.969 209.588 226.989 209.274 226.986L147.834 226.302L102.66 230.024C100.699 230.186 100.11 227.422 101.966 226.771C102.105 226.722 102.249 226.692 102.395 226.681L147.808 223.237L203.376 225.791C203.733 225.808 204.09 225.793 204.445 225.747L249.524 219.904Z" fill="#85634E"/>
<path d="M308.36 219.395L249.524 219.904L204.445 225.747C204.09 225.793 203.733 225.808 203.376 225.791L147.808 223.237L102.395 226.681C102.249 226.692 102.105 226.722 101.966 226.771C100.11 227.422 100.699 230.186 102.66 230.024L147.834 226.302L209.274 226.986C209.588 226.989 209.901 226.969 210.211 226.925L250.76 221.12L308.36 219.395Z" fill="#7D5B46"/>
<path d="M116.041 193.837L158.052 196.844L116.07 197.208L75.9478 200.007L45.5724 202.058C60.917 200.508 74.3433 198.939 75.9312 198.096C78.8598 196.542 89.3864 194.735 94.2836 194.025L116.041 193.837Z" fill="#7D5B46"/>
<path d="M320.193 170.258L261.357 170.768L216.278 176.611C215.923 176.657 215.566 176.671 215.209 176.655L159.64 174.101L114.228 177.544C114.082 177.555 113.937 177.586 113.799 177.634C111.943 178.286 112.532 181.049 114.492 180.888L159.667 177.165L221.107 177.85C221.421 177.853 221.734 177.833 222.044 177.788L262.593 171.983L320.193 170.258Z" fill="#7D5B46"/>
<path d="M313.46 206.735L355.471 209.742L313.489 210.106L273.367 212.905L242.992 214.956C258.336 213.406 271.763 211.837 273.351 210.994C276.279 209.44 286.806 207.632 291.703 206.923L313.46 206.735Z" fill="#7D5B46"/>
<path d="M74.7717 228.265C75.5722 228.199 76.1862 227.527 76.1793 226.724C76.1716 225.836 75.4147 225.141 74.5299 225.208L30.7526 228.527C30.6064 228.538 30.4622 228.569 30.3238 228.617C28.4678 229.269 29.0566 232.032 31.0172 231.871L74.7717 228.265Z" fill="#7D5B46"/>
<path d="M62.8228 108.831C62.9708 108.831 63.2015 108.896 63.5239 109.196C63.8515 109.5 64.2136 109.996 64.5884 110.716C65.337 112.154 66.0401 114.299 66.6411 117.03C67.8397 122.475 68.5893 130.043 68.5894 138.435C68.5894 146.827 67.8397 154.396 66.6411 159.841C66.0401 162.571 65.337 164.716 64.5884 166.155C64.2136 166.875 63.8515 167.371 63.5239 167.675C63.2015 167.975 62.9708 168.039 62.8228 168.039C62.6747 168.039 62.4433 167.975 62.1206 167.675C61.7931 167.371 61.431 166.875 61.0562 166.155C60.3076 164.716 59.6044 162.571 59.0034 159.841C57.8048 154.396 57.0552 146.827 57.0552 138.435C57.0552 130.043 57.8049 122.475 59.0034 117.03C59.6044 114.299 60.3076 112.154 61.0562 110.716C61.4309 109.996 61.7931 109.5 62.1206 109.196C62.4433 108.896 62.6747 108.831 62.8228 108.831Z" stroke="url(#paint0_linear_323_4911)" stroke-width="1.92232"/>
<path d="M286.341 112.97C286.369 113.001 286.402 113.042 286.441 113.097C286.637 113.375 286.863 113.842 287.098 114.529C287.565 115.894 288 117.917 288.37 120.476C289.108 125.579 289.568 132.659 289.568 140.5C289.568 148.341 289.108 155.421 288.37 160.524C288 163.083 287.565 165.106 287.098 166.471C286.863 167.158 286.637 167.625 286.441 167.903C286.403 167.957 286.369 167.998 286.341 168.029C286.314 167.998 286.281 167.957 286.243 167.903C286.046 167.625 285.821 167.158 285.585 166.471C285.119 165.106 284.684 163.083 284.314 160.524C283.576 155.421 283.116 148.341 283.116 140.5C283.116 132.659 283.576 125.579 284.314 120.476C284.684 117.917 285.119 115.894 285.585 114.529C285.821 113.842 286.046 113.375 286.243 113.097C286.281 113.043 286.314 113.001 286.341 112.97Z" stroke="url(#paint1_linear_323_4911)" stroke-width="1.79245"/>
<circle cx="342.612" cy="101.741" r="3.0645" fill="#4D392D"/>
<circle cx="358.546" cy="224.934" r="3.0645" fill="#4D392D"/>
<circle cx="342.612" cy="48.4192" r="3.0645" fill="#4D392D"/>
<circle cx="28.1934" cy="274.579" r="3.0645" fill="#4D392D"/>
<circle cx="10.4192" cy="101.741" r="3.0645" fill="#4D392D"/>
<circle cx="20.8384" cy="227.999" r="3.0645" fill="#4D392D"/>
<path d="M101.869 60.9326C104.738 60.9326 106.875 61.6051 108.28 62.9501C109.685 64.295 110.387 66.2825 110.387 68.9127C110.387 70.3174 110.044 71.5577 109.356 72.6337C108.669 73.6797 107.653 74.5016 106.308 75.0994C104.963 75.6673 103.304 75.9512 101.331 75.9512L101.511 73.9338C102.437 73.9338 103.498 74.0683 104.694 74.3373C105.889 74.5764 107.04 75.0247 108.146 75.6822C109.281 76.3099 110.208 77.2065 110.925 78.3721C111.672 79.5078 112.046 80.9723 112.046 82.7656C112.046 84.7382 111.717 86.3521 111.06 87.6074C110.432 88.8627 109.595 89.834 108.549 90.5214C107.503 91.2089 106.382 91.6871 105.187 91.956C103.991 92.1951 102.841 92.3147 101.735 92.3147H90.5717C89.7946 92.3147 89.1371 92.0607 88.5991 91.5526C88.091 91.0146 87.837 90.3571 87.837 89.58V63.6674C87.837 62.8903 88.091 62.2477 88.5991 61.7396C89.1371 61.2016 89.7946 60.9326 90.5717 60.9326H101.869ZM101.062 66.2228H93.0823L93.6651 65.5055V73.62L93.1271 73.2165H101.197C102.064 73.2165 102.841 72.9325 103.528 72.3647C104.215 71.7968 104.559 70.9749 104.559 69.8989C104.559 68.6138 104.23 67.6873 103.573 67.1194C102.945 66.5216 102.108 66.2228 101.062 66.2228ZM101.421 78.5066H93.2616L93.6651 78.1479V87.6074L93.2168 87.1591H101.735C103.11 87.1591 104.2 86.8004 105.007 86.0831C105.814 85.3359 106.218 84.2301 106.218 82.7656C106.218 81.4206 105.949 80.4493 105.411 79.8515C104.873 79.2538 104.23 78.8802 103.483 78.7308C102.736 78.5813 102.049 78.5066 101.421 78.5066ZM136.402 67.8815C137.179 67.8815 137.821 68.1356 138.33 68.6437C138.838 69.1518 139.092 69.8093 139.092 70.6163V89.58C139.092 90.3571 138.838 91.0146 138.33 91.5526C137.821 92.0607 137.179 92.3147 136.402 92.3147C135.625 92.3147 134.982 92.0607 134.474 91.5526C133.966 91.0146 133.712 90.3571 133.712 89.58V87.3832L134.698 87.7867C134.698 88.1753 134.489 88.6535 134.071 89.2213C133.652 89.7593 133.084 90.2973 132.367 90.8353C131.65 91.3732 130.798 91.8365 129.812 92.225C128.855 92.5837 127.809 92.763 126.673 92.763C124.611 92.763 122.743 92.24 121.069 91.1939C119.396 90.118 118.066 88.6535 117.079 86.8004C116.123 84.9175 115.645 82.7656 115.645 80.3447C115.645 77.8939 116.123 75.742 117.079 73.889C118.066 72.006 119.381 70.5415 121.025 69.4955C122.668 68.4195 124.492 67.8815 126.494 67.8815C127.779 67.8815 128.96 68.0758 130.036 68.4643C131.112 68.8529 132.038 69.346 132.815 69.9438C133.622 70.5415 134.235 71.1542 134.653 71.7819C135.102 72.3796 135.326 72.8877 135.326 73.3061L133.712 73.889V70.6163C133.712 69.8392 133.966 69.1966 134.474 68.6885C134.982 68.1505 135.625 67.8815 136.402 67.8815ZM127.346 87.8315C128.661 87.8315 129.812 87.5028 130.798 86.8453C131.784 86.1877 132.546 85.2911 133.084 84.1554C133.652 83.0196 133.936 81.7494 133.936 80.3447C133.936 78.9101 133.652 77.6249 133.084 76.4892C132.546 75.3534 131.784 74.4568 130.798 73.7993C129.812 73.1418 128.661 72.813 127.346 72.813C126.061 72.813 124.925 73.1418 123.939 73.7993C122.952 74.4568 122.175 75.3534 121.607 76.4892C121.069 77.6249 120.8 78.9101 120.8 80.3447C120.8 81.7494 121.069 83.0196 121.607 84.1554C122.175 85.2911 122.952 86.1877 123.939 86.8453C124.925 87.5028 126.061 87.8315 127.346 87.8315ZM157.738 67.8815C159.95 67.8815 161.624 68.3448 162.76 69.2713C163.925 70.1978 164.717 71.4382 165.136 72.9923C165.584 74.5166 165.808 76.2202 165.808 78.1031V89.58C165.808 90.3571 165.554 91.0146 165.046 91.5526C164.538 92.0607 163.895 92.3147 163.118 92.3147C162.341 92.3147 161.699 92.0607 161.19 91.5526C160.682 91.0146 160.428 90.3571 160.428 89.58V78.1031C160.428 77.1168 160.294 76.2351 160.025 75.4581C159.786 74.6511 159.337 74.0085 158.68 73.5303C158.022 73.0521 157.081 72.813 155.855 72.813C154.66 72.813 153.644 73.0521 152.807 73.5303C152 74.0085 151.372 74.6511 150.924 75.4581C150.506 76.2351 150.296 77.1168 150.296 78.1031V89.58C150.296 90.3571 150.042 91.0146 149.534 91.5526C149.026 92.0607 148.384 92.3147 147.606 92.3147C146.829 92.3147 146.187 92.0607 145.679 91.5526C145.171 91.0146 144.917 90.3571 144.917 89.58V71.0646C144.917 70.2875 145.171 69.6449 145.679 69.1368C146.187 68.5988 146.829 68.3298 147.606 68.3298C148.384 68.3298 149.026 68.5988 149.534 69.1368C150.042 69.6449 150.296 70.2875 150.296 71.0646V72.9923L149.624 72.8578C149.893 72.3497 150.281 71.8118 150.79 71.2439C151.298 70.6461 151.895 70.0932 152.583 69.5851C153.27 69.077 154.047 68.6736 154.914 68.3747C155.781 68.0459 156.722 67.8815 157.738 67.8815ZM171.892 68.7782H182.517C183.234 68.7782 183.832 69.0173 184.31 69.4955C184.788 69.9737 185.027 70.5714 185.027 71.2887C185.027 71.9761 184.788 72.559 184.31 73.0372C183.832 73.4855 183.234 73.7096 182.517 73.7096H171.892C171.175 73.7096 170.577 73.4705 170.099 72.9923C169.62 72.5141 169.381 71.9164 169.381 71.1991C169.381 70.5116 169.62 69.9438 170.099 69.4955C170.577 69.0173 171.175 68.7782 171.892 68.7782ZM176.689 63.1742C177.466 63.1742 178.094 63.4432 178.572 63.9812C179.08 64.4893 179.334 65.1319 179.334 65.9089V85.859C179.334 86.2774 179.409 86.6211 179.558 86.8901C179.737 87.1591 179.962 87.3533 180.23 87.4729C180.529 87.5924 180.843 87.6522 181.172 87.6522C181.531 87.6522 181.859 87.5924 182.158 87.4729C182.457 87.3235 182.801 87.2487 183.189 87.2487C183.608 87.2487 183.981 87.443 184.31 87.8315C184.669 88.2201 184.848 88.7581 184.848 89.4455C184.848 90.2823 184.385 90.9698 183.458 91.5077C182.562 92.0457 181.59 92.3147 180.544 92.3147C179.917 92.3147 179.214 92.2699 178.437 92.1802C177.69 92.0607 176.973 91.8066 176.285 91.4181C175.628 90.9996 175.075 90.372 174.627 89.5351C174.178 88.6983 173.954 87.5476 173.954 86.0831V65.9089C173.954 65.1319 174.208 64.4893 174.716 63.9812C175.254 63.4432 175.912 63.1742 176.689 63.1742ZM207.765 68.3298C208.542 68.3298 209.185 68.5988 209.693 69.1368C210.201 69.6449 210.455 70.2875 210.455 71.0646V82.4518C210.455 85.6199 209.573 88.1304 207.81 89.9835C206.047 91.8365 203.506 92.763 200.189 92.763C196.871 92.763 194.331 91.8365 192.567 89.9835C190.834 88.1304 189.967 85.6199 189.967 82.4518V71.0646C189.967 70.2875 190.221 69.6449 190.729 69.1368C191.237 68.5988 191.88 68.3298 192.657 68.3298C193.434 68.3298 194.077 68.5988 194.585 69.1368C195.093 69.6449 195.347 70.2875 195.347 71.0646V82.4518C195.347 84.2749 195.75 85.6348 196.557 86.5314C197.364 87.3982 198.575 87.8315 200.189 87.8315C201.832 87.8315 203.058 87.3982 203.865 86.5314C204.672 85.6348 205.075 84.2749 205.075 82.4518V71.0646C205.075 70.2875 205.329 69.6449 205.837 69.1368C206.345 68.5988 206.988 68.3298 207.765 68.3298ZM235.915 67.8815C236.692 67.8815 237.335 68.1356 237.843 68.6437C238.351 69.1518 238.605 69.8093 238.605 70.6163V89.58C238.605 90.3571 238.351 91.0146 237.843 91.5526C237.335 92.0607 236.692 92.3147 235.915 92.3147C235.138 92.3147 234.496 92.0607 233.988 91.5526C233.48 91.0146 233.226 90.3571 233.226 89.58V87.3832L234.212 87.7867C234.212 88.1753 234.003 88.6535 233.584 89.2213C233.166 89.7593 232.598 90.2973 231.881 90.8353C231.163 91.3732 230.311 91.8365 229.325 92.225C228.369 92.5837 227.323 92.763 226.187 92.763C224.125 92.763 222.257 92.24 220.583 91.1939C218.909 90.118 217.579 88.6535 216.593 86.8004C215.637 84.9175 215.158 82.7656 215.158 80.3447C215.158 77.8939 215.637 75.742 216.593 73.889C217.579 72.006 218.894 70.5415 220.538 69.4955C222.182 68.4195 224.005 67.8815 226.008 67.8815C227.293 67.8815 228.473 68.0758 229.549 68.4643C230.625 68.8529 231.552 69.346 232.329 69.9438C233.136 70.5415 233.749 71.1542 234.167 71.7819C234.615 72.3796 234.839 72.8877 234.839 73.3061L233.226 73.889V70.6163C233.226 69.8392 233.48 69.1966 233.988 68.6885C234.496 68.1505 235.138 67.8815 235.915 67.8815ZM226.859 87.8315C228.175 87.8315 229.325 87.5028 230.311 86.8453C231.298 86.1877 232.06 85.2911 232.598 84.1554C233.166 83.0196 233.45 81.7494 233.45 80.3447C233.45 78.9101 233.166 77.6249 232.598 76.4892C232.06 75.3534 231.298 74.4568 230.311 73.7993C229.325 73.1418 228.175 72.813 226.859 72.813C225.574 72.813 224.439 73.1418 223.452 73.7993C222.466 74.4568 221.689 75.3534 221.121 76.4892C220.583 77.6249 220.314 78.9101 220.314 80.3447C220.314 81.7494 220.583 83.0196 221.121 84.1554C221.689 85.2911 222.466 86.1877 223.452 86.8453C224.439 87.5028 225.574 87.8315 226.859 87.8315ZM257.252 67.8815C259.464 67.8815 261.137 68.3448 262.273 69.2713C263.439 70.1978 264.231 71.4382 264.649 72.9923C265.098 74.5166 265.322 76.2202 265.322 78.1031V89.58C265.322 90.3571 265.068 91.0146 264.56 91.5526C264.052 92.0607 263.409 92.3147 262.632 92.3147C261.855 92.3147 261.212 92.0607 260.704 91.5526C260.196 91.0146 259.942 90.3571 259.942 89.58V78.1031C259.942 77.1168 259.807 76.2351 259.538 75.4581C259.299 74.6511 258.851 74.0085 258.194 73.5303C257.536 73.0521 256.595 72.813 255.369 72.813C254.174 72.813 253.157 73.0521 252.321 73.5303C251.514 74.0085 250.886 74.6511 250.438 75.4581C250.019 76.2351 249.81 77.1168 249.81 78.1031V89.58C249.81 90.3571 249.556 91.0146 249.048 91.5526C248.54 92.0607 247.897 92.3147 247.12 92.3147C246.343 92.3147 245.7 92.0607 245.192 91.5526C244.684 91.0146 244.43 90.3571 244.43 89.58V71.0646C244.43 70.2875 244.684 69.6449 245.192 69.1368C245.7 68.5988 246.343 68.3298 247.12 68.3298C247.897 68.3298 248.54 68.5988 249.048 69.1368C249.556 69.6449 249.81 70.2875 249.81 71.0646V72.9923L249.138 72.8578C249.407 72.3497 249.795 71.8118 250.303 71.2439C250.811 70.6461 251.409 70.0932 252.096 69.5851C252.784 69.077 253.561 68.6736 254.428 68.3747C255.294 68.0459 256.236 67.8815 257.252 67.8815Z" fill="white"/>
<path d="M79.5849 188.843C81.0795 188.821 82.4797 189.232 83.7856 190.076C85.1201 190.919 86.2004 192.068 87.0263 193.522C87.8523 194.976 88.2783 196.609 88.3045 198.42C88.3302 200.202 87.9513 201.831 87.1677 203.309C86.3841 204.786 85.3376 205.98 84.0284 206.89C82.7474 207.771 81.3597 208.222 79.8651 208.244L71.9323 208.358L72.3522 207.576L72.4811 216.5C72.4919 217.248 72.2711 217.883 71.8187 218.407C71.3659 218.903 70.7658 219.156 70.0185 219.166C69.3 219.177 68.7072 218.941 68.2403 218.459C67.773 217.948 67.5339 217.319 67.5231 216.572L67.1633 191.653C67.1525 190.906 67.3879 190.284 67.8694 189.788C68.3793 189.264 69.0079 188.996 69.7552 188.985L79.5849 188.843ZM79.7941 203.329C80.3402 203.321 80.8686 203.083 81.3793 202.616C81.89 202.149 82.3127 201.553 82.6472 200.83C82.9813 200.078 83.1426 199.299 83.1309 198.494C83.1189 197.661 82.9352 196.887 82.58 196.174C82.2247 195.46 81.7852 194.891 81.2617 194.468C80.7377 194.015 80.2026 193.793 79.6565 193.801L71.6375 193.917L72.1437 193.133L72.3024 204.127L71.8182 203.444L79.7941 203.329ZM95.694 218.796C94.9467 218.806 94.3252 218.571 93.8295 218.09C93.3334 217.579 93.08 216.95 93.0692 216.203L92.8121 198.398C92.8013 197.65 93.0367 197.029 93.5182 196.533C93.9994 196.009 94.6136 195.741 95.3609 195.73C96.1082 195.719 96.7299 195.969 97.2259 196.48C97.7216 196.961 97.9748 197.576 97.9856 198.323L98.0442 202.375L97.7007 199.491C98.0069 198.797 98.4005 198.187 98.8817 197.663C99.3911 197.109 99.9595 196.656 100.587 196.302C101.214 195.919 101.885 195.636 102.601 195.453C103.317 195.27 104.035 195.174 104.753 195.163C105.616 195.151 106.338 195.385 106.92 195.865C107.53 196.345 107.84 196.916 107.85 197.577C107.863 198.525 107.629 199.218 107.147 199.657C106.664 200.066 106.135 200.275 105.56 200.283C105.014 200.291 104.51 200.198 104.047 200.003C103.613 199.808 103.108 199.715 102.534 199.723C102.016 199.731 101.486 199.868 100.944 200.134C100.43 200.372 99.9468 200.752 99.4944 201.276C99.0708 201.8 98.7208 202.452 98.4446 203.232C98.1967 203.983 98.0803 204.876 98.0952 205.911L98.2428 216.128C98.2535 216.876 98.0184 217.512 97.5372 218.036C97.0557 218.532 96.4412 218.785 95.694 218.796ZM133.042 206.743C133.076 209.1 132.574 211.191 131.537 213.017C130.528 214.814 129.14 216.229 127.372 217.26C125.633 218.291 123.672 218.823 121.487 218.854C119.303 218.886 117.313 218.412 115.516 217.431C113.748 216.451 112.32 215.077 111.231 213.31C110.17 211.515 109.622 209.438 109.588 207.082C109.554 204.725 110.042 202.648 111.051 200.851C112.088 199.025 113.476 197.596 115.215 196.565C116.982 195.504 118.958 194.958 121.142 194.927C123.326 194.895 125.303 195.384 127.071 196.394C128.867 197.374 130.296 198.762 131.357 200.558C132.446 202.324 133.008 204.386 133.042 206.743ZM127.868 206.818C127.847 205.352 127.527 204.091 126.908 203.037C126.317 201.953 125.515 201.116 124.5 200.527C123.514 199.938 122.418 199.652 121.21 199.669C120.003 199.687 118.901 200.004 117.904 200.623C116.935 201.24 116.157 202.1 115.569 203.2C115.01 204.272 114.741 205.541 114.762 207.007C114.783 208.444 115.088 209.704 115.679 210.788C116.298 211.843 117.1 212.665 118.086 213.255C119.101 213.844 120.212 214.129 121.419 214.112C122.626 214.095 123.714 213.777 124.682 213.159C125.68 212.541 126.458 211.696 127.018 210.625C127.605 209.524 127.889 208.255 127.868 206.818ZM149.131 186.114C149.763 186.105 150.383 186.182 150.989 186.346C151.595 186.509 152.102 186.79 152.51 187.186C152.918 187.554 153.126 188.054 153.135 188.686C153.146 189.405 152.939 189.983 152.514 190.42C152.117 190.829 151.646 191.037 151.1 191.044C150.841 191.048 150.452 190.996 149.933 190.889C149.414 190.753 148.91 190.688 148.421 190.695C147.703 190.705 147.144 190.872 146.747 191.194C146.377 191.515 146.124 191.892 145.987 192.326C145.849 192.73 145.782 193.09 145.787 193.407L146.105 215.437C146.116 216.185 145.88 216.82 145.399 217.345C144.918 217.841 144.303 218.094 143.556 218.105C142.809 218.115 142.187 217.88 141.692 217.398C141.195 216.888 140.942 216.259 140.931 215.512L140.614 193.524C140.584 191.484 141.278 189.749 142.695 188.32C144.111 186.891 146.257 186.155 149.131 186.114ZM149.739 195.376C150.429 195.366 151.007 195.588 151.474 196.041C151.94 196.466 152.178 197.023 152.188 197.713C152.198 198.402 151.976 198.981 151.523 199.447C151.069 199.885 150.498 200.109 149.808 200.119L138.383 200.284C137.693 200.294 137.115 200.086 136.649 199.662C136.182 199.209 135.944 198.637 135.934 197.947C135.924 197.258 136.146 196.694 136.6 196.256C137.053 195.789 137.624 195.551 138.314 195.541L149.739 195.376ZM166.121 218.21C163.678 218.245 161.544 217.773 159.719 216.793C157.922 215.784 156.522 214.41 155.519 212.671C154.546 210.931 154.043 208.955 154.011 206.742C153.973 204.155 154.459 201.949 155.468 200.123C156.504 198.268 157.864 196.84 159.545 195.838C161.227 194.837 163.016 194.322 164.913 194.295C166.379 194.274 167.763 194.555 169.065 195.14C170.396 195.725 171.572 196.542 172.593 197.59C173.614 198.611 174.422 199.806 175.017 201.178C175.64 202.549 175.963 204.01 175.986 205.562C175.967 206.252 175.702 206.817 175.191 207.255C174.68 207.694 174.079 207.918 173.39 207.928L156.92 208.166L155.565 203.873L171.387 203.645L170.451 204.521L170.434 203.357C170.365 202.524 170.052 201.781 169.497 201.128C168.97 200.474 168.301 199.967 167.491 199.605C166.709 199.213 165.873 199.024 164.982 199.037C164.12 199.05 163.316 199.176 162.572 199.417C161.828 199.658 161.187 200.055 160.649 200.609C160.111 201.163 159.69 201.902 159.388 202.826C159.085 203.751 158.943 204.917 158.964 206.325C158.986 207.877 159.321 209.195 159.969 210.278C160.646 211.332 161.491 212.139 162.506 212.699C163.548 213.231 164.644 213.488 165.794 213.471C166.857 213.456 167.704 213.357 168.334 213.176C168.964 212.994 169.464 212.786 169.834 212.55C170.233 212.286 170.589 212.065 170.903 211.888C171.416 211.622 171.903 211.486 172.363 211.479C172.995 211.47 173.516 211.678 173.924 212.103C174.362 212.528 174.584 213.028 174.593 213.603C174.604 214.379 174.212 215.089 173.416 215.733C172.678 216.376 171.637 216.952 170.293 217.46C168.949 217.939 167.558 218.189 166.121 218.21ZM179.292 214.009C178.999 213.611 178.862 213.096 178.882 212.463C178.901 211.83 179.267 211.279 179.979 210.808C180.435 210.514 180.922 210.392 181.44 210.442C181.958 210.464 182.464 210.715 182.96 211.197C183.806 212.018 184.691 212.652 185.618 213.099C186.544 213.545 187.697 213.759 189.077 213.739C189.508 213.704 189.981 213.639 190.497 213.546C191.013 213.423 191.455 213.187 191.824 212.837C192.221 212.457 192.414 211.894 192.403 211.147C192.394 210.514 192.171 210.014 191.734 209.647C191.298 209.279 190.719 208.972 189.996 208.723C189.303 208.475 188.523 208.241 187.658 208.024C186.763 207.778 185.839 207.504 184.886 207.202C183.962 206.899 183.108 206.509 182.325 206.031C181.541 205.525 180.899 204.859 180.399 204.032C179.898 203.206 179.638 202.16 179.62 200.896C179.599 199.459 179.984 198.231 180.774 197.214C181.565 196.196 182.588 195.405 183.845 194.841C185.13 194.276 186.477 193.983 187.886 193.963C188.777 193.95 189.713 194.052 190.693 194.267C191.673 194.455 192.612 194.786 193.51 195.262C194.408 195.709 195.164 196.316 195.779 197.083C196.101 197.51 196.296 198.024 196.362 198.627C196.428 199.23 196.163 199.78 195.566 200.277C195.14 200.628 194.64 200.794 194.064 200.773C193.489 200.724 193.011 200.53 192.633 200.19C192.135 199.565 191.467 199.072 190.628 198.71C189.818 198.348 188.881 198.175 187.817 198.19C187.386 198.196 186.913 198.26 186.397 198.383C185.91 198.476 185.482 198.698 185.113 199.048C184.744 199.37 184.565 199.89 184.575 200.608C184.585 201.27 184.808 201.798 185.245 202.194C185.681 202.562 186.261 202.87 186.983 203.118C187.734 203.337 188.527 203.556 189.364 203.773C190.23 203.991 191.11 204.251 192.006 204.555C192.901 204.858 193.727 205.263 194.481 205.769C195.236 206.276 195.849 206.943 196.321 207.77C196.793 208.568 197.038 209.599 197.056 210.864C197.077 212.33 196.664 213.586 195.817 214.633C194.969 215.68 193.903 216.486 192.618 217.051C191.332 217.587 190.013 217.865 188.662 217.884C186.967 217.909 185.267 217.646 183.563 217.096C181.858 216.517 180.435 215.488 179.292 214.009ZM206.313 214.568C206.323 215.315 206.088 215.951 205.607 216.475C205.126 216.971 204.511 217.224 203.764 217.235C203.017 217.246 202.395 217.011 201.899 216.529C201.403 216.019 201.15 215.39 201.139 214.643L200.882 196.837C200.871 196.09 201.107 195.468 201.588 194.973C202.069 194.448 202.683 194.181 203.431 194.17C204.178 194.159 204.8 194.409 205.296 194.919C205.792 195.401 206.045 196.015 206.056 196.762L206.313 214.568ZM203.347 191.368C202.37 191.382 201.678 191.234 201.271 190.924C200.864 190.613 200.655 190.056 200.643 189.251L200.631 188.432C200.619 187.598 200.827 187.035 201.254 186.741C201.709 186.418 202.396 186.25 203.316 186.237C204.322 186.222 205.029 186.37 205.436 186.681C205.843 186.991 206.052 187.549 206.063 188.353L206.075 189.173C206.087 190.006 205.88 190.584 205.454 190.906C205.027 191.2 204.324 191.354 203.347 191.368ZM233.877 205.287C233.911 207.644 233.409 209.735 232.372 211.561C231.363 213.358 229.975 214.772 228.207 215.804C226.469 216.835 224.507 217.367 222.323 217.398C220.138 217.43 218.148 216.956 216.351 215.975C214.584 214.995 213.155 213.621 212.066 211.854C211.005 210.059 210.458 207.982 210.424 205.625C210.39 203.269 210.877 201.192 211.886 199.395C212.923 197.569 214.311 196.14 216.05 195.109C217.817 194.048 219.793 193.502 221.977 193.471C224.162 193.439 226.138 193.928 227.906 194.937C229.703 195.918 231.131 197.306 232.192 199.102C233.281 200.868 233.843 202.93 233.877 205.287ZM228.703 205.361C228.682 203.896 228.362 202.635 227.743 201.581C227.153 200.497 226.35 199.66 225.335 199.071C224.349 198.482 223.253 198.196 222.046 198.213C220.839 198.231 219.736 198.548 218.739 199.166C217.771 199.784 216.992 200.643 216.405 201.744C215.845 202.816 215.576 204.085 215.597 205.551C215.618 206.988 215.924 208.248 216.514 209.332C217.133 210.387 217.936 211.209 218.922 211.798C219.936 212.388 221.047 212.673 222.254 212.656C223.461 212.639 224.549 212.321 225.518 211.703C226.515 211.085 227.293 210.24 227.853 209.168C228.441 208.068 228.724 206.799 228.703 205.361ZM250.562 193.058C252.689 193.027 254.305 193.449 255.41 194.325C256.544 195.2 257.323 196.381 257.747 197.87C258.199 199.33 258.438 200.965 258.464 202.776L258.624 213.812C258.635 214.56 258.399 215.196 257.918 215.72C257.437 216.216 256.822 216.469 256.075 216.48C255.328 216.491 254.706 216.255 254.211 215.774C253.714 215.263 253.461 214.634 253.45 213.887L253.291 202.85C253.277 201.902 253.136 201.056 252.866 200.312C252.625 199.54 252.185 198.928 251.546 198.477C250.907 198.026 249.998 197.809 248.82 197.826C247.67 197.843 246.696 198.087 245.898 198.559C245.129 199.03 244.534 199.656 244.114 200.439C243.723 201.192 243.534 202.043 243.547 202.991L243.707 214.028C243.718 214.775 243.482 215.411 243.001 215.935C242.52 216.431 241.905 216.684 241.158 216.695C240.411 216.706 239.789 216.471 239.293 215.989C238.797 215.479 238.544 214.85 238.533 214.103L238.276 196.297C238.265 195.55 238.501 194.928 238.982 194.433C239.463 193.908 240.078 193.641 240.825 193.63C241.572 193.619 242.194 193.869 242.69 194.379C243.186 194.861 243.439 195.475 243.45 196.222L243.476 198.076L242.828 197.956C243.079 197.464 243.446 196.941 243.926 196.388C244.407 195.806 244.974 195.266 245.628 194.768C246.282 194.27 247.024 193.871 247.853 193.571C248.682 193.243 249.585 193.072 250.562 193.058ZM282.798 192.592C283.545 192.582 284.167 192.817 284.662 193.299C285.158 193.78 285.411 194.409 285.423 195.185L285.686 213.422C285.697 214.169 285.461 214.805 284.98 215.329C284.499 215.825 283.884 216.078 283.137 216.089C282.39 216.1 281.768 215.864 281.273 215.383C280.777 214.873 280.523 214.244 280.512 213.496L280.482 211.384L281.436 211.758C281.441 212.132 281.247 212.595 280.852 213.147C280.457 213.67 279.919 214.195 279.236 214.722C278.554 215.25 277.741 215.707 276.798 216.094C275.883 216.452 274.88 216.639 273.788 216.655C271.805 216.684 270.001 216.207 268.377 215.224C266.752 214.213 265.453 212.823 264.479 211.054C263.533 209.257 263.043 207.194 263.01 204.866C262.976 202.509 263.406 200.433 264.3 198.638C265.222 196.813 266.466 195.387 268.032 194.358C269.598 193.3 271.344 192.758 273.27 192.73C274.506 192.712 275.644 192.883 276.684 193.241C277.724 193.6 278.622 194.061 279.377 194.625C280.162 195.189 280.759 195.77 281.171 196.368C281.61 196.936 281.833 197.422 281.838 197.824L280.294 198.407L280.249 195.26C280.238 194.512 280.474 193.891 280.955 193.395C281.436 192.871 282.05 192.603 282.798 192.592ZM274.366 211.903C275.631 211.885 276.733 211.553 277.672 210.907C278.611 210.261 279.332 209.388 279.833 208.288C280.364 207.188 280.619 205.963 280.6 204.612C280.58 203.232 280.289 202 279.727 200.916C279.194 199.831 278.448 198.98 277.491 198.361C276.533 197.743 275.422 197.442 274.157 197.461C272.922 197.478 271.834 197.81 270.895 198.456C269.955 199.102 269.22 199.975 268.69 201.076C268.188 202.175 267.948 203.415 267.968 204.794C267.987 206.145 268.263 207.363 268.797 208.448C269.358 209.532 270.118 210.384 271.076 211.002C272.033 211.621 273.13 211.921 274.366 211.903ZM296.892 213.26C296.903 214.007 296.653 214.643 296.144 215.168C295.662 215.664 295.048 215.917 294.3 215.928C293.582 215.938 292.975 215.703 292.479 215.221C291.983 214.711 291.729 214.082 291.719 213.335L291.334 186.691C291.323 185.944 291.558 185.322 292.04 184.826C292.55 184.302 293.179 184.034 293.926 184.023C294.673 184.012 295.28 184.262 295.748 184.773C296.243 185.254 296.497 185.869 296.507 186.616L296.892 213.26Z" fill="white"/>
<defs>
<linearGradient id="paint0_linear_323_4911" x1="85.6979" y1="131.899" x2="-10.8023" y2="128.055" gradientUnits="userSpaceOnUse">
<stop stop-color="#634B3C"/>
<stop offset="1" stop-color="#A28573"/>
</linearGradient>
<linearGradient id="paint1_linear_323_4911" x1="300.359" y1="134.406" x2="241.175" y2="132.856" gradientUnits="userSpaceOnUse">
<stop stop-color="#634B3C"/>
<stop offset="1" stop-color="#A28573"/>
</linearGradient>
</defs>
</svg>
